<svg xmlns="http://www.w3.org/2000/svg" xmlns:xlink="http://www.w3.org/1999/xlink" width="1440" height="1510" viewBox="0 0 1440 1510">
    <defs>
        <path id="a" d="M0 0h1440v1510H0z"/>
        <linearGradient id="b" x1="50%" x2="50%" y1="0%" y2="51.653%">
            <stop offset="0%" stop-color="#FFF"/>
            <stop offset="34.359%" stop-color="#E8730B"/>
            <stop offset="100%" stop-color="#FFF"/>
        </linearGradient>
    </defs>
    <g fill="none" fill-rule="evenodd" opacity=".339">
        <mask id="c" fill="#fff">
            <use xlink:href="#a"/>
        </mask>
        <path fill="url(#b)" d="M.788 1237.959c31.919-13.183 67.614 2.498 96.348 22.723 28.734 20.225 55.67 45.713 88.745 54.78 61.096 16.746 127.337-26.719 186.995-4.541 82.55 30.688 102.703 166.343 186.044 194.306 55.113 18.492 112.375-19.767 154.723-62.868 42.348-43.1 81.982-94.88 137.358-112.39 52.328-16.543 111.334.55 160.883-24.324 38.045-19.1 63.84-59.899 100.575-81.906 36.029-21.583 78.99-23.054 119.928-20.72 40.939 2.332 82.452 7.91 122.578-1.352 40.125-9.263 72.895-35.8 85.035-79.024V6.487 0H0l.788 1237.959z" mask="url(#c)"/>
    </g>
</svg>
