<svg xmlns="http://www.w3.org/2000/svg" width="140" height="140" viewBox="0 0 140 140">
    <g fill="none" fill-rule="evenodd">
        <path fill="#FFF" fill-opacity="0" d="M2 138h135V3H2z"/>
        <path stroke="#EC5621" stroke-linecap="round" stroke-linejoin="round" stroke-width="3.2" d="M41.388 137.573h-4.872c-2.18 0-3.952-1.78-3.952-3.97v-3.018a29.193 29.193 0 0 1-9.956-3.626l-2.187 2.193a3.945 3.945 0 0 1-5.584 0l-3.445-3.453a3.958 3.958 0 0 1-1.16-2.813c0-1.06.412-2.059 1.16-2.808l1.816-1.822a29.366 29.366 0 0 1-4.46-9.924H5.95c-2.181 0-3.95-1.78-3.95-3.97v-4.885c0-2.188 1.769-3.97 3.95-3.97h2.52c.702-3.599 2.045-6.98 4.001-10.08L10.4 83.35a3.957 3.957 0 0 1-1.16-2.812c0-1.062.412-2.06 1.16-2.808l3.445-3.456a3.943 3.943 0 0 1 5.583 0l2.035 2.04a29.213 29.213 0 0 1 9.696-4.06v-3.427c0-2.188 1.774-3.968 3.952-3.968h4.873c2.18 0 3.952 1.78 3.952 3.968v3.426a29.26 29.26 0 0 1 9.348 3.83l2.796-2.806a3.944 3.944 0 0 1 5.581 0l3.445 3.455a3.96 3.96 0 0 1 1.162 2.813 3.95 3.95 0 0 1-1.162 2.808l-2.712 2.722a29.445 29.445 0 0 1 3.918 9.022h4.239c2.177 0 3.95 1.782 3.95 3.97v4.887c0 2.19-1.773 3.97-3.95 3.97h-3.896a29.47 29.47 0 0 1-3.451 9.252l2.897 2.906a3.946 3.946 0 0 1 1.159 2.81c0 1.06-.41 2.06-1.159 2.81l-3.446 3.454a3.943 3.943 0 0 1-5.583 0l-2.516-2.524a29.275 29.275 0 0 1-9.216 4.336v3.634c0 2.19-1.773 3.97-3.952 3.97z"/>
        <path stroke="#EC5621" stroke-linecap="round" stroke-linejoin="round" stroke-width="3.2" d="M37.908 122.425c-11.661 0-21.147-9.514-21.147-21.206 0-11.695 9.486-21.21 21.147-21.21 11.66 0 21.147 9.515 21.147 21.21 0 11.692-9.486 21.206-21.147 21.206zM114.075 31.644c8.189 0 14.78-6.61 14.78-14.822 0-8.21-6.591-14.822-14.78-14.822-8.187 0-14.778 6.611-14.778 14.822.2 8.213 6.79 14.822 14.778 14.822zM137.476 71.507H90.675V48.546c0-5.318 4.3-9.63 9.601-9.63h27.6c5.301 0 9.6 4.31 9.6 9.628v22.963zM23.436 17.061c0 4.423-3.575 8.01-7.986 8.01-4.41 0-7.984-3.587-7.984-8.01 0-4.422 3.575-8.007 7.984-8.007 4.411 0 7.986 3.585 7.986 8.007zM23.436 17.061h61.773M15.45 25.07v32.727M117.372 125.95c0-4.422 3.574-8.008 7.985-8.008 4.41 0 7.984 3.586 7.984 8.008 0 4.423-3.574 8.008-7.984 8.008s-7.985-3.585-7.985-8.008zM117.372 125.95H85.209M125.358 117.942V86.306"/>
    </g>
</svg>
