<svg xmlns="http://www.w3.org/2000/svg" xmlns:xlink="http://www.w3.org/1999/xlink" width="31" height="53" viewBox="0 0 31 53">
    <defs>
        <path id="a" d="M.085.179h27.989v24.04H.084z"/>
        <path id="c" d="M0 .007h26.08v24.29H0z"/>
    </defs>
    <g fill="none" fill-rule="evenodd">
        <path fill="#FC8E67" d="M26.168 51.812S9.425 49.674 9.361 22.764l6.057-2.079 10.75 31.127z"/>
        <g transform="rotate(116 11.122 25.897)">
            <mask id="b" fill="#fff">
                <use xlink:href="#a"/>
            </mask>
            <path fill="#FC8E67" d="M28.074.704S12.001-4.773.084 19.647l4.557 4.572L28.074.704z" mask="url(#b)"/>
        </g>
        <path fill="#FFF" d="M20.74 21.03c3.085 4.17 5.243 8.245 6.421 12.128 1.009 3.323 1.303 6.514.875 9.482-.378 2.625-1.265 4.602-1.942 5.799-.254.448-.498.824-.71 1.125a13.588 13.588 0 0 1-1.252-.45c-1.27-.526-3.188-1.538-5.103-3.374-2.165-2.076-3.898-4.771-5.151-8.01-1.463-3.785-2.273-8.324-2.411-13.509l9.274-3.192zM9.873 20.561l9.87-3.397.796 2.313-9.87 3.396z"/>
        <path fill="#EDF1F4" d="M18.202 39.529l6.565-2.16c1.722-.566 2.669-2.378 2.122-4.105a2.08 2.08 0 0 0-.01-.032c-1.199-3.764-3.362-7.723-6.437-11.785l-9.078 2.986c.19 5.01 1.033 9.404 2.51 13.076.005.01.01.021.013.032.68 1.683 2.593 2.554 4.315 1.988"/>
        <path fill="#EDF1F4" d="M13.882 37.835c.553 1.43 1.2 2.754 1.935 3.967.526.868 1.503 1.372 2.511 1.25.265-.033.53-.093.792-.183l7.076-2.436c.262-.09.508-.205.736-.343.87-.524 1.33-1.522 1.21-2.53a25.017 25.017 0 0 0-.919-4.317 30.74 30.74 0 0 0-1.07-2.956c-1.114-2.097-2.493-4.229-4.135-6.383l-9.787 3.368c.033 2.709.26 5.237.673 7.575.285 1.042.611 2.039.978 2.988"/>
        <path fill="#FFF" d="M18.4 38.651l5.67-1.85c1.488-.486 2.303-2.046 1.828-3.536l-.01-.027c-1.04-3.246-2.915-6.661-5.578-10.167l-7.841 2.56c.172 4.319.907 8.107 2.189 11.274l.01.027c.59 1.451 2.245 2.205 3.733 1.72"/>
        <path fill="#EDF1F4" d="M13.882 37.835c.553 1.43 1.2 2.754 1.935 3.967.526.868 1.503 1.372 2.511 1.25.265-.033.53-.093.792-.183l7.076-2.436c.262-.09.508-.205.736-.343.87-.524 1.33-1.522 1.21-2.53a25.017 25.017 0 0 0-.919-4.317 30.74 30.74 0 0 0-1.07-2.956c-1.114-2.097-2.493-4.229-4.135-6.383l-.436.15c2.053 3.02 3.525 5.973 4.385 8.805l.008.029c.459 1.52-.38 3.128-1.881 3.645l-5.72 1.969c-1.501.516-3.153-.235-3.728-1.715l-.01-.028c-1.068-2.76-1.726-5.993-1.968-9.637l-.437.15c.033 2.709.26 5.237.673 7.575.285 1.042.611 2.039.978 2.988"/>
        <path fill="#EC5621" d="M20.537 22.62l-7.93 2.729c.017.642.047 1.272.088 1.89l8.937-3.075a47.334 47.334 0 0 0-1.095-1.545"/>
        <path fill="#B9E8FF" d="M14.724 36.915l.01.027c.571 1.472 2.215 2.22 3.708 1.706l5.689-1.958c1.492-.514 2.327-2.114 1.87-3.626l-.008-.028c-.854-2.817-2.319-5.753-4.361-8.757l-8.866 3.051c.241 3.624.896 6.84 1.958 9.585"/>
        <g fill="#0182AC">
            <path d="M24.448 39.597l.812-2.64c-.184.11-.38.205-.585.286l-.786 2.555.559-.2z"/>
            <path d="M25.877 39.083c.178-.063.348-.146.507-.244.474-.294.741-.86.679-1.442a21.935 21.935 0 0 0-.315-2.032 3.965 3.965 0 0 1-1.488 1.591l-.812 2.641 1.43-.514zM18.614 41.632a2.64 2.64 0 0 0 .544-.133l1.458-.524.785-2.552-2.267.815a3.749 3.749 0 0 1-2.851-.11c.294.63.61 1.233.947 1.804.295.5.838.774 1.384.7M23.889 39.798l.786-2.555c-.037.014-.073.029-.11.042l-1.01.364-.785 2.552 1.119-.403zM22.77 40.2l.784-2.551-2.153.774-.785 2.552z"/>
        </g>
        <g transform="rotate(116 12.892 13.53)">
            <mask id="d" fill="#fff">
                <use xlink:href="#c"/>
            </mask>
            <path fill="#E0F4FE" d="M25.489 20.886l.186-.192c.472-.485.542-1.2.156-1.596L7.493.263c-.387-.396-1.082-.325-1.554.16l-.187.192c-.471.484-.541 1.199-.155 1.595l.842.866c.386.396.317 1.11-.155 1.595l-.187.192c-.472.485-.541 1.2-.155 1.596L8.095 8.67c.386.397.316 1.111-.156 1.596l-.186.192c-.472.484-1.168.556-1.554.16L2.146 6.453c-.387-.396-1.082-.325-1.554.16l-.187.191c-.472.485-.542 1.2-.155 1.596l4.983 5.119c.386.396.317 1.11-.155 1.595l-.187.192c-.472.485-1.167.557-1.553.16l-.41-.42c-.385-.397-1.08-.325-1.553.16l-.187.191c-.471.485-.541 1.2-.155 1.596L2.44 18.44c.386.397.317 1.111-.155 1.596l-.187.192c-.472.485-.541 1.2-.155 1.596l2.076 2.132c.386.397 1.082.326 1.553-.16l.187-.191c.472-.485.542-1.2.155-1.596-.386-.396-.316-1.11.156-1.596l.187-.192c.472-.484 1.167-.556 1.553-.16l2.698 2.771c.385.397 1.081.325 1.553-.16l.187-.191c.472-.485.541-1.2.155-1.596l-.715-.734c-.385-.396-.316-1.111.156-1.596l.187-.192c.472-.484 1.167-.556 1.553-.16l5.683 5.838c.387.396 1.082.325 1.554-.16l.187-.191c.472-.485.542-1.2.155-1.596L19.01 19.88c-.386-.396-.316-1.11.156-1.595l.187-.192c.471-.485 1.167-.556 1.553-.16l3.029 3.111c.386.397 1.082.325 1.554-.16" mask="url(#d)"/>
        </g>
    </g>
</svg>
