<svg xmlns="http://www.w3.org/2000/svg" xmlns:xlink="http://www.w3.org/1999/xlink" width="83" height="80" viewBox="0 0 83 80">
    <defs>
        <path id="a" d="M.168.353H55.48v47.495H.168z"/>
        <path id="c" d="M0 .014h51.54V48H0z"/>
    </defs>
    <g fill="none" fill-rule="evenodd">
        <path fill="#FC8E67" d="M81.973 2S92.681 33.583 44.94 57L36 48.046 81.973 2z"/>
        <g transform="translate(27)">
            <mask id="b" fill="#fff">
                <use xlink:href="#a"/>
            </mask>
            <path fill="#FC8E67" d="M55.48 1.39S23.717-9.43.168 38.816l9.004 9.033L55.48 1.391z" mask="url(#b)"/>
        </g>
        <path fill="#FFF" d="M32 38.297c4.736-9.09 10.104-16.45 15.98-21.905 5.03-4.668 10.441-7.954 16.085-9.765 4.99-1.601 9.27-1.74 11.982-1.573 1.016.062 1.895.17 2.613.286.115.719.223 1.598.286 2.613.166 2.712.029 6.992-1.572 11.982-1.812 5.643-5.098 11.055-9.767 16.085C62.153 41.896 54.792 47.264 45.703 52L32 38.297zM40.583 58L26 43.417 29.417 40 44 54.583z"/>
        <path fill="#EDF1F4" d="M67.058 26.783l-9.523-9.787c-2.498-2.568-6.537-2.68-9.13-.212l-.048.047C42.71 22.218 37.551 29.487 33 38.466L46.168 52c8.736-4.678 15.81-9.98 21.051-15.783l.045-.05c2.4-2.665 2.292-6.816-.206-9.384"/>
        <path fill="#EDF1F4" d="M67.791 35.922c2.062-2.22 3.854-4.515 5.37-6.872 1.087-1.687 1.135-3.857.044-5.542a7.66 7.66 0 0 0-1.01-1.247L61.739 11.805a7.602 7.602 0 0 0-1.248-1.01c-1.683-1.09-3.854-1.043-5.541.044-2.357 1.516-4.652 3.308-6.872 5.37a60.737 60.737 0 0 0-4.324 4.46c-2.759 3.793-5.35 8.09-7.754 12.87L50.46 48c4.782-2.404 9.077-4.995 12.872-7.754a60.952 60.952 0 0 0 4.46-4.324"/>
        <path fill="#FFF" d="M65.327 27.19l-8.199-8.463c-2.152-2.222-5.629-2.318-7.862-.184l-.042.04C44.361 23.242 39.92 29.529 36 37.294L47.34 49c7.522-4.046 13.613-8.631 18.127-13.65l.039-.044c2.067-2.304 1.973-5.895-.179-8.115"/>
        <path fill="#EDF1F4" d="M67.791 35.922c2.062-2.22 3.854-4.515 5.37-6.872 1.087-1.687 1.135-3.857.044-5.542a7.66 7.66 0 0 0-1.01-1.247L61.739 11.805a7.602 7.602 0 0 0-1.248-1.01c-1.683-1.09-3.854-1.043-5.541.044-2.357 1.516-4.652 3.308-6.872 5.37a60.737 60.737 0 0 0-4.324 4.46c-2.759 3.793-5.35 8.09-7.754 12.87l.644.645c3.586-6.262 7.555-11.434 11.84-15.412l.044-.04c2.302-2.13 5.886-2.035 8.105.184l8.451 8.452c2.218 2.217 2.314 5.802.184 8.104l-.04.043c-3.979 4.286-9.15 8.254-15.412 11.84l.644.645c4.782-2.404 9.077-4.995 12.872-7.754a60.952 60.952 0 0 0 4.46-4.324"/>
        <path fill="#EC5621" d="M35 37.281L46.718 49A94.421 94.421 0 0 0 50 47.204L36.795 34A93.505 93.505 0 0 0 35 37.281"/>
        <path fill="#BDE0F2" d="M65.428 35.224l.04-.043c2.12-2.289 2.023-5.854-.183-8.06l-8.406-8.406c-2.206-2.206-5.77-2.302-8.06-.183l-.043.04c-4.263 3.957-8.21 9.1-11.776 15.329L50.1 47c6.228-3.566 11.37-7.513 15.328-11.776"/>
        <g fill="#0182AC">
            <path d="M61.769 15.633l-5.395.846c.355.231.695.496 1.016.791l5.22-.818-.841-.819z"/>
            <path d="M59.617 13.54a5.35 5.35 0 0 0-.873-.688c-.932-.588-2.168-.57-3.15.044a43.348 43.348 0 0 0-3.336 2.32 7.837 7.837 0 0 1 4.116 1.263l5.395-.846-2.152-2.093zM70.437 24.23a5.215 5.215 0 0 0-.708-.85l-2.194-2.136-5.213.816 3.413 3.32c1.472 1.434 2.233 3.29 2.274 5.159a42.427 42.427 0 0 0 2.383-3.246c.631-.955.65-2.157.045-3.064M62.61 16.452l-5.22.818c.057.052.114.103.17.157l1.521 1.48 5.213-.816-1.684-1.639z"/>
            <path d="M64.294 18.09l-5.212.818 3.24 3.152 5.213-.816z"/>
        </g>
        <g transform="translate(0 32)">
            <mask id="d" fill="#fff">
                <use xlink:href="#c"/>
            </mask>
            <path fill="#FFF" d="M50.37 41.262l.37-.379c.932-.958 1.07-2.369.307-3.152L14.807.52c-.763-.785-2.138-.643-3.07.314l-.37.38c-.932.957-1.07 2.368-.307 3.152l1.665 1.71c.763.783.626 2.194-.307 3.152l-.369.379c-.932.958-1.07 2.368-.307 3.152l4.255 4.37c.763.782.625 2.194-.307 3.152l-.37.379c-.932.957-2.307 1.098-3.07.315L4.24 12.75c-.763-.783-2.138-.642-3.07.316l-.37.378c-.932.958-1.07 2.37-.307 3.153l9.849 10.113c.763.783.625 2.195-.307 3.152l-.37.38c-.932.957-2.307 1.098-3.07.314l-.807-.829c-.763-.783-2.137-.642-3.07.315l-.37.38c-.932.957-1.07 2.369-.306 3.152l2.78 2.855c.763.784.626 2.195-.307 3.153l-.37.378c-.931.958-1.069 2.37-.306 3.153l4.103 4.213c.763.784 2.138.643 3.07-.316l.37-.378c.932-.957 1.07-2.37.306-3.153-.763-.783-.626-2.195.307-3.152l.37-.38c.932-.957 2.306-1.098 3.07-.314l5.33 5.472c.763.784 2.137.642 3.07-.315l.37-.38c.932-.957 1.07-2.368.307-3.151l-1.413-1.45c-.763-.784-.625-2.196.307-3.153l.37-.38c.932-.957 2.307-1.098 3.07-.314l11.23 11.532c.763.783 2.138.642 3.07-.316l.37-.378c.932-.958 1.07-2.37.307-3.153l-4.255-4.37c-.763-.782-.625-2.194.307-3.151l.37-.38c.932-.957 2.307-1.098 3.07-.315l5.985 6.146c.763.784 2.138.643 3.07-.315" mask="url(#d)"/>
        </g>
    </g>
    
</svg>
