<svg xmlns="http://www.w3.org/2000/svg" width="188" height="41" viewBox="0 0 188 41">
    <g fill="none" fill-rule="evenodd">
        <path fill="#898989" d="M11.534 30.472a3.982 3.982 0 0 0 1.383-1.316c.355-.558.592-1.196.75-1.914.119-.717.198-1.475.198-2.233 0-.757-.08-1.515-.237-2.233-.158-.718-.395-1.356-.79-1.954a4.637 4.637 0 0 0-1.383-1.396c-.553-.319-1.264-.518-2.093-.518-.83 0-1.54.2-2.094.518a4.637 4.637 0 0 0-1.382 1.396c-.356.558-.593 1.196-.75 1.914a14.302 14.302 0 0 0-.198 2.273c0 .758.079 1.516.237 2.233.158.718.395 1.356.75 1.914.356.559.83.997 1.383 1.316.592.36 1.303.519 2.093.519.87 0 1.58-.16 2.133-.519zM4.86 15.518v2.393h.079c.632-.997 1.422-1.755 2.37-2.193a7.24 7.24 0 0 1 3.2-.718c1.46 0 2.725.28 3.791.837a8.032 8.032 0 0 1 2.647 2.234c.711.917 1.224 1.993 1.54 3.23.356 1.236.514 2.512.514 3.868 0 1.236-.158 2.472-.514 3.629a8.492 8.492 0 0 1-1.54 3.11 7.11 7.11 0 0 1-2.568 2.153c-1.027.519-2.212.798-3.594.798a7.24 7.24 0 0 1-3.2-.718 6.075 6.075 0 0 1-2.41-2.074h-.078V41H0V15.518h4.859zM28 34h-5V14.443h5V34zM23 7h5v4.424h-5V7zM36.412 29.82c.246.4.574.722.943.963.37.281.78.442 1.271.603.492.12 1.025.16 1.517.16.41 0 .78-.04 1.19-.12.41-.08.82-.241 1.148-.402.328-.2.615-.442.82-.723.246-.321.369-.723.369-1.164 0-.804-.533-1.366-1.6-1.768-1.065-.401-2.542-.803-4.469-1.204a20.611 20.611 0 0 1-2.255-.603 6.31 6.31 0 0 1-1.968-.923c-.574-.362-1.066-.844-1.394-1.406-.369-.602-.533-1.285-.533-2.129 0-1.204.246-2.208.738-3.012a5.598 5.598 0 0 1 1.927-1.847 9.803 9.803 0 0 1 2.706-.964c.984-.2 2.01-.281 3.076-.281 1.066 0 2.09.12 3.075.321.984.16 1.845.522 2.624.964.779.482 1.435 1.084 1.927 1.848.533.803.82 1.767.943 2.931h-5.084c-.082-1.004-.451-1.686-1.148-2.048-.697-.321-1.517-.522-2.502-.522-.287 0-.615.04-.943.08-.369 0-.697.08-.984.201-.287.16-.533.321-.738.562-.205.241-.287.522-.287.924 0 .482.164.843.533 1.125.328.32.82.562 1.353.722.574.201 1.23.362 1.928.523.738.12 1.476.28 2.214.481.779.161 1.558.362 2.296.603a7.434 7.434 0 0 1 1.968.964c.574.401 1.025.923 1.394 1.526.328.602.533 1.325.533 2.209 0 1.245-.287 2.329-.779 3.172-.533.844-1.19 1.526-2.01 2.008-.82.522-1.762.884-2.828 1.085-1.066.24-2.173.321-3.24.321-1.148 0-2.255-.12-3.32-.321-1.067-.241-2.05-.603-2.87-1.125-.862-.482-1.518-1.164-2.051-2.008-.574-.843-.861-1.928-.902-3.213h5.084c0 .603.123 1.085.328 1.486zM60.805 18.936c-.854 0-1.587.2-2.156.562a4.862 4.862 0 0 0-1.383 1.486 6.428 6.428 0 0 0-.774 1.968 13.036 13.036 0 0 0-.203 2.168c0 .683.081 1.366.203 2.089.163.723.407 1.365.733 1.928.325.602.814 1.044 1.383 1.405.57.402 1.261.562 2.075.562 1.261 0 2.238-.361 2.93-1.044.691-.682 1.098-1.646 1.26-2.811H70c-.366 2.53-1.343 4.458-3.01 5.783C65.361 34.357 63.286 35 60.723 35c-1.465 0-2.767-.241-3.987-.723-1.18-.482-2.197-1.124-3.052-2.008-.854-.843-1.505-1.847-1.993-3.052A11.112 11.112 0 0 1 51 25.28c0-1.446.203-2.811.651-4.096.447-1.245 1.058-2.33 1.912-3.253a8.92 8.92 0 0 1 3.092-2.169c1.22-.482 2.604-.763 4.19-.763 1.14 0 2.239.16 3.296.442a8.666 8.666 0 0 1 2.808 1.365 7.073 7.073 0 0 1 2.034 2.21c.529.923.814 1.967.895 3.212H64.71c-.366-2.209-1.668-3.293-3.906-3.293zM85.435 19.98c-.644-.683-1.57-1.044-2.857-1.044-.845 0-1.53.16-2.093.442-.523.28-.966.602-1.328 1.044a3.479 3.479 0 0 0-.684 1.325c-.12.442-.201.884-.241 1.245h8.531c-.281-1.325-.684-2.33-1.328-3.012zm-5.916 10c.805.763 1.932 1.124 3.381 1.124 1.086 0 1.972-.24 2.736-.803.765-.522 1.248-1.084 1.409-1.646h4.588c-.725 2.289-1.851 3.895-3.38 4.9-1.53.963-3.381 1.445-5.514 1.445-1.49 0-2.857-.241-4.065-.723a8.998 8.998 0 0 1-3.058-2.008c-.845-.883-1.49-1.968-1.932-3.173A11.914 11.914 0 0 1 73 25.04c0-1.405.241-2.73.684-3.976.483-1.205 1.167-2.289 2.012-3.172a9.72 9.72 0 0 1 3.059-2.129A10.664 10.664 0 0 1 82.739 15c1.61 0 3.018.321 4.226.964 1.207.602 2.173 1.446 2.978 2.49a9.913 9.913 0 0 1 1.65 3.614c.362 1.366.482 2.771.362 4.217H78.232c.08 1.687.523 2.932 1.287 3.695zM99.453 29.82c.246.4.533.722.902.963.37.281.82.442 1.312.603.492.12.984.16 1.517.16.37 0 .78-.04 1.19-.12.41-.08.779-.241 1.107-.402.328-.2.615-.442.86-.723.206-.321.329-.723.329-1.164 0-.804-.533-1.366-1.6-1.768-1.065-.401-2.541-.803-4.428-1.204-.779-.161-1.558-.362-2.296-.603a6.31 6.31 0 0 1-1.968-.923c-.574-.362-1.025-.844-1.394-1.406a4.32 4.32 0 0 1-.533-2.129c0-1.204.246-2.208.738-3.012a5.598 5.598 0 0 1 1.927-1.847 9.804 9.804 0 0 1 2.706-.964c1.025-.2 2.05-.281 3.076-.281 1.066 0 2.09.12 3.075.321.984.16 1.886.522 2.665.964a6.951 6.951 0 0 1 1.927 1.848c.492.803.82 1.767.902 2.931h-5.043c-.082-1.004-.492-1.686-1.19-2.048a5.824 5.824 0 0 0-2.46-.522c-.327 0-.615.04-.984.08-.369 0-.656.08-.943.201-.287.16-.533.321-.738.562a1.338 1.338 0 0 0-.328.924c0 .482.205.843.533 1.125.37.32.82.562 1.394.722.533.201 1.19.362 1.928.523.738.12 1.476.28 2.214.481.779.161 1.517.362 2.255.603a7.433 7.433 0 0 1 1.968.964 4.551 4.551 0 0 1 1.394 1.526c.369.602.533 1.325.533 2.209 0 1.245-.246 2.329-.78 3.172a5.607 5.607 0 0 1-2.008 2.008c-.82.522-1.763.884-2.83 1.085-1.065.24-2.131.321-3.239.321-1.148 0-2.214-.12-3.32-.321-1.067-.241-2.01-.603-2.87-1.125a6.065 6.065 0 0 1-2.05-2.008c-.534-.843-.821-1.928-.903-3.213h5.084c0 .603.123 1.085.37 1.486z"/>
        <path fill="#EC5621" d="M188 40h-75V0h75z"/>
        <path fill="#FFF" d="M138.876 7v3.032H123.65v8.563h14.187v3.032h-14.187v9.341H139V34h-19V7zM156.554 19.25a5.208 5.208 0 0 0 1.978-.737c.577-.369 1.03-.86 1.4-1.475.33-.615.495-1.434.495-2.417 0-1.352-.37-2.459-1.154-3.319-.741-.86-1.977-1.27-3.666-1.27h-8.981v9.382h7.539c.824 0 1.607-.04 2.39-.164zM155.772 7c2.595 0 4.614.615 6.097 1.885 1.442 1.27 2.183 2.99 2.183 5.162 0 1.639-.37 3.073-1.153 4.343-.742 1.23-1.936 2.049-3.584 2.5v.081c.782.164 1.442.41 1.936.779.494.327.865.778 1.154 1.27.33.491.535 1.024.659 1.639.164.614.247 1.229.33 1.884.04.656.082 1.311.123 2.008 0 .696.082 1.352.165 2.007.123.656.247 1.27.453 1.885.206.574.494 1.106.865 1.557h-4.037c-.248-.287-.412-.656-.536-1.147a17.4 17.4 0 0 1-.165-1.598c0-.615-.041-1.23-.082-1.926 0-.655-.083-1.352-.206-2.007a72.91 72.91 0 0 0-.371-1.844 4.557 4.557 0 0 0-.742-1.557 3.24 3.24 0 0 0-1.277-1.065c-.535-.246-1.236-.41-2.142-.41h-8.816V34H143V7h12.772zM175.855 34V14.667H169V12.07c.887 0 1.774-.082 2.58-.206a6.92 6.92 0 0 0 2.3-.783c.685-.371 1.249-.907 1.733-1.566.484-.66.806-1.484.968-2.515H179v27h-3.145z"/>
    </g>
</svg>
