<svg xmlns="http://www.w3.org/2000/svg" width="88" height="88" viewBox="0 0 88 88">
    <g fill="none" fill-rule="evenodd">
        <path fill="#FFF" fill-opacity="0" d="M1 86h84V2H1z"/>
        <path stroke="#EC5621" stroke-linecap="round" stroke-linejoin="round" stroke-width="3" d="M47.635 86H41.99a4.589 4.589 0 0 1-4.579-4.586v-3.487a33.871 33.871 0 0 1-11.534-4.19l-2.535 2.534a4.575 4.575 0 0 1-6.467 0l-3.992-3.99a4.561 4.561 0 0 1-1.344-3.248c0-1.225.477-2.378 1.344-3.244l2.103-2.104A33.898 33.898 0 0 1 9.817 52.22h-3.24A4.585 4.585 0 0 1 2 47.633v-5.642a4.585 4.585 0 0 1 4.576-4.587h2.922a33.827 33.827 0 0 1 4.635-11.645l-2.4-2.4a4.565 4.565 0 0 1-1.344-3.248c0-1.224.477-2.377 1.344-3.244l3.992-3.991a4.579 4.579 0 0 1 6.467 0l2.357 2.357a33.9 33.9 0 0 1 11.236-4.69V6.584A4.586 4.586 0 0 1 40.363 2h5.645a4.586 4.586 0 0 1 4.58 4.584v3.959a33.89 33.89 0 0 1 10.828 4.424l3.24-3.243a4.58 4.58 0 0 1 6.467 0l3.992 3.992a4.562 4.562 0 0 1 1.344 3.25 4.559 4.559 0 0 1-1.344 3.243l-3.144 3.145a33.95 33.95 0 0 1 4.542 10.422h4.909A4.588 4.588 0 0 1 86 40.363v5.644a4.587 4.587 0 0 1-4.578 4.587H76.91a33.962 33.962 0 0 1-4.001 10.687l3.358 3.357a4.558 4.558 0 0 1 1.342 3.246c0 1.226-.475 2.381-1.342 3.247l-3.992 3.992a4.583 4.583 0 0 1-6.47 0l-2.914-2.916a33.97 33.97 0 0 1-10.677 5.007v4.2A4.588 4.588 0 0 1 47.635 86z"/>
        <path stroke="#EC5621" stroke-linecap="round" stroke-linejoin="round" stroke-width="3" d="M43.5 69C29.99 69 19 58.01 19 44.502 19 30.992 29.99 20 43.5 20S68 30.993 68 44.502C68 58.01 57.01 69 43.5 69z"/>
    </g>
</svg>
