<svg xmlns="http://www.w3.org/2000/svg" width="140" height="124" viewBox="0 0 140 124">
    <g fill="none" fill-rule="evenodd">
        <path fill="#FFF" fill-opacity="0" d="M2 137h135V2H2z"/>
        <path stroke="#EC5621" stroke-linecap="round" stroke-linejoin="round" stroke-width="3.2" d="M69.74 28.792a13.365 13.365 0 0 0 13.395-13.396C83.135 7.975 77.162 2 69.74 2a13.365 13.365 0 0 0-13.396 13.396c.18 7.422 6.156 13.396 13.396 13.396zM90.95 64.818H48.527V44.965c0-5.302 4.301-9.6 9.602-9.6h23.22c5.3 0 9.6 4.298 9.6 9.599v19.854zM69.74 71.508v16M13.468 99.242V87.509l113.3-.048v11.733M2 122.174h22.934V99.242H2zM39.515 122.174H62.45V99.242H39.515zM77.03 122.174h22.933V99.242H77.03zM114.544 122.174h22.933V99.242h-22.933zM50.982 99.242V87.509M88.496 99.242V87.509"/>
    </g>
</svg>
