<svg xmlns="http://www.w3.org/2000/svg" xmlns:xlink="http://www.w3.org/1999/xlink" width="150" height="151" viewBox="0 0 150 151">
    <defs>
        <path id="b" d="M70 141c38.66 0 70-31.564 70-70.5S108.66 0 70 0 0 31.564 0 70.5 31.34 141 70 141"/>
        <filter id="a" width="120.7%" height="120.6%" x="-6.8%" y="-6.7%" filterUnits="objectBoundingBox">
            <feMorphology in="SourceAlpha" operator="dilate" radius="1.5" result="shadowSpreadOuter1"/>
            <feOffset dx="5" dy="5" in="shadowSpreadOuter1" result="shadowOffsetOuter1"/>
            <feGaussianBlur in="shadowOffsetOuter1" result="shadowBlurOuter1" stdDeviation="2.5"/>
            <feColorMatrix in="shadowBlurOuter1" values="0 0 0 0 0 0 0 0 0 0 0 0 0 0 0 0 0 0 0.0473940122 0"/>
        </filter>
    </defs>
    <g fill="none" fill-rule="evenodd">
        <g>
            <use fill="#000" filter="url(#a)" xlink:href="#b"/>
            <use fill="#FFF" xlink:href="#b"/>
        </g>
        <path fill="#FFFF5E" fill-opacity="0" d="M27 112h84V28H27z"/>
        <path stroke="#EC5621" stroke-linecap="round" stroke-linejoin="round" stroke-width="3" d="M55.275 31c-.12 0-.235.013-.354.017-.03-.001-.055-.017-.086-.017-5.506 0-10.017 4.35-10.394 9.835a10.298 10.298 0 0 0-1.96-.194c-5.914 0-10.724 4.877-10.724 10.873 0 2.741.99 5.297 2.74 7.26-.672.143-1.317.357-1.935.622A10.58 10.58 0 0 0 26 69.206c0 .013.008.024.008.035 0 .057-.008.112-.008.169 0 5.2 3.62 9.558 8.44 10.621a10.88 10.88 0 0 0-2.684 7.191c0 5.993 4.81 10.87 10.724 10.87.701 0 1.393-.068 2.07-.202l-.001.238c0 5.995 4.81 10.872 10.724 10.872C61.188 109 66 104.123 66 98.128V42.585C66.001 36.413 60.988 31 55.275 31z"/>
        <path fill="#EC5621" d="M53 83c1.653 0 3 1.344 3 2.999A3.004 3.004 0 0 1 53 89c-1.654 0-3-1.345-3-3.001A3.003 3.003 0 0 1 53 83M47 74c0 1.653-1.344 3-3.002 3A3.002 3.002 0 0 1 41 74c0-1.654 1.344-3 2.998-3A3.002 3.002 0 0 1 47 74"/>
        <path stroke="#EC5621" stroke-linecap="round" stroke-linejoin="round" stroke-width="3" d="M46 74h20M53 85V74"/>
        <path fill="#EC5621" d="M58 57.999A3.003 3.003 0 0 1 54.999 61 3.003 3.003 0 0 1 52 57.999 3.003 3.003 0 0 1 54.999 55 3.004 3.004 0 0 1 58 57.999"/>
        <path stroke="#EC5621" stroke-linecap="round" stroke-linejoin="round" stroke-width="3" d="M55 58h11"/>
        <path fill="#EC5621" d="M40 87.001A3.004 3.004 0 0 1 43.001 84 3.002 3.002 0 0 1 46 87.001 3.002 3.002 0 0 1 43.001 90 3.004 3.004 0 0 1 40 87.001"/>
        <path stroke="#EC5621" stroke-linecap="round" stroke-linejoin="round" stroke-width="3" d="M42 87h-9.697M113 69.206c0-4.444-2.72-8.248-6.561-9.809-.62-.265-1.264-.48-1.935-.624 1.75-1.962 2.74-4.517 2.74-7.259 0-5.996-4.812-10.872-10.725-10.872-.71 0-1.415.072-2.113.218-.507-5.522-5.103-9.86-10.68-9.86C78.012 31 73 36.414 73 42.584v55.544C73 104.123 77.81 109 83.726 109c5.913 0 10.725-4.877 10.725-10.872l-.002-.238c.678.134 1.37.203 2.07.203 5.913 0 10.725-4.878 10.725-10.871 0-2.7-.97-5.234-2.684-7.19 4.819-1.064 8.439-5.421 8.439-10.621 0-.058-.006-.113-.008-.17.002-.013.009-.023.009-.035z"/>
        <path fill="#EC5621" d="M97 90c-1.653 0-3-1.345-3-3 0-1.653 1.346-3 3-3 1.655 0 3 1.345 3 3a3.002 3.002 0 0 1-3 3M82 72c0-1.653 1.345-3 3.001-3A3.002 3.002 0 0 1 88 72c0 1.653-1.345 3-2.999 3A3.006 3.006 0 0 1 82 72M84 45c-1.653 0-3-1.344-3-2.999A3.004 3.004 0 0 1 84 39c1.654 0 3 1.345 3 3.001A3.003 3.003 0 0 1 84 45M91 53.001A3.004 3.004 0 0 1 94.002 50 3.002 3.002 0 0 1 97 53.001 3.002 3.002 0 0 1 94.002 56 3.002 3.002 0 0 1 91 53.001"/>
        <path stroke="#EC5621" stroke-linecap="round" stroke-linejoin="round" stroke-width="3" d="M93 53H73M84 42v11M84 72H73M84 96v13M97 87h10M105.159 59.033a10.836 10.836 0 0 0-6.022 1.105 10.943 10.943 0 0 0-3.917 3.334M33.926 58.28a10.832 10.832 0 0 0 5.07 3.434c1.652.528 3.414.656 5.13.369"/>
        <path fill="#EC5621" d="M84 99c-1.653 0-3-1.345-3-2.999A3.005 3.005 0 0 1 84 93c1.654 0 3 1.345 3 3.001A3.004 3.004 0 0 1 84 99"/>
    </g>
</svg>
