<svg xmlns="http://www.w3.org/2000/svg" xmlns:xlink="http://www.w3.org/1999/xlink" width="611" height="611" viewBox="0 0 611 611">
    <defs>
        <path id="b" d="M601.021 297.99a13.8 13.8 0 0 0-2.765-7.298c-2.55-3.362-6.655-5.597-11.129-6.605-10.488-2.36-21.742 3.255-31.95 3.923-7.318.48-14.507 1.047-21.811.573-.775-3.441-4.133-6.09-8.366-6.09h-10.982c-3.899-45.105-21.77-86.208-49.303-118.955l7.759-7.75c2.99-2.988 3.49-7.238 1.602-10.22 4.832-5.496 10.315-10.171 15.827-15.001 7.691-6.737 19.623-10.72 25.371-19.799 3.318-5.242 4.386-11.466 2.021-16.503-1.414-3.015-4.03-5.49-6.508-7.61a13.825 13.825 0 0 0-7.123-3.21c-4.187-.572-8.665.742-12.545 3.19-9.085 5.743-13.071 17.664-19.813 25.348-4.834 5.51-9.513 10.986-15.016 15.816-2.984-1.888-7.237-1.389-10.228 1.6l-7.756 7.751c-32.78-27.508-73.911-45.366-119.054-49.261V76.916c0-4.23-2.651-7.584-6.095-8.36-.474-7.295.093-14.48.574-21.791.668-10.199 6.288-21.438 3.925-31.925-1.361-6.05-5.014-11.206-10.247-13.1-3.138-1.135-6.742-1.034-9.986-.78a13.816 13.816 0 0 0-7.306 2.76c-3.364 2.55-5.6 6.65-6.608 11.12-2.363 10.48 3.258 21.726 3.924 31.925.482 7.31 1.048 14.496.575 21.792-3.445.775-6.095 4.13-6.095 8.36v10.972c-45.144 3.895-86.281 21.753-119.053 49.261l-7.759-7.752c-2.99-2.988-7.243-3.487-10.228-1.599-5.5-4.83-10.18-10.306-15.014-15.816-6.743-7.684-10.728-19.605-19.815-25.348-5.246-3.315-11.475-4.383-16.516-2.02-3.018 1.412-5.493 4.028-7.618 6.502a13.803 13.803 0 0 0-3.21 7.117c-.574 4.184.74 8.66 3.19 12.534 5.75 9.078 17.68 13.062 25.37 19.799 5.514 4.83 10.996 9.505 15.83 15.001-1.89 2.982-1.39 7.232 1.601 10.22l7.757 7.75c-27.531 32.753-45.403 73.85-49.302 118.955H76.184c-4.232 0-7.59 2.649-8.365 6.09-7.304.474-14.493-.093-21.81-.573-10.209-.668-21.458-6.284-31.951-3.923-6.056 1.362-11.218 5.01-13.114 10.24-1.135 3.134-1.034 6.737-.78 9.979a13.806 13.806 0 0 0 2.763 7.297c2.551 3.362 6.657 5.598 11.13 6.605 10.488 2.36 21.743-3.255 31.952-3.923 7.317-.48 14.506-1.047 21.81-.574.774 3.442 4.133 6.091 8.365 6.091h10.983c3.899 45.105 21.77 86.21 49.302 118.955l-7.758 7.752c-2.99 2.988-3.49 7.236-1.603 10.218-4.831 5.496-10.314 10.171-15.828 15.001-7.691 6.737-19.621 10.72-25.37 19.799-3.317 5.244-4.385 11.466-2.022 16.503 1.416 3.015 4.033 5.49 6.51 7.61a13.826 13.826 0 0 0 7.121 3.21c4.187.572 8.667-.742 12.546-3.19 9.086-5.743 13.072-17.662 19.814-25.347 4.834-5.51 9.513-10.986 15.015-15.816 2.983 1.889 7.236 1.388 10.227-1.602l7.757-7.749c32.78 27.507 73.912 45.366 119.055 49.26v10.974c0 4.229 2.65 7.583 6.095 8.358.474 7.296-.093 14.481-.574 21.792-.668 10.199-6.29 21.438-3.926 31.926 1.362 6.05 5.015 11.205 10.248 13.1 3.138 1.134 6.742 1.033 9.988.78a13.83 13.83 0 0 0 7.302-2.76c3.366-2.55 5.603-6.651 6.61-11.12 2.363-10.48-3.258-21.727-3.924-31.926-.482-7.31-1.05-14.496-.575-21.792 3.445-.775 6.095-4.13 6.095-8.358v-10.974c45.144-3.895 86.28-21.753 119.053-49.26l7.759 7.75c2.99 2.989 7.243 3.49 10.226 1.601 5.502 4.83 10.183 10.305 15.014 15.816 6.745 7.685 10.73 19.604 19.816 25.347 5.247 3.315 11.476 4.383 16.517 2.022 3.016-1.414 5.493-4.03 7.617-6.504a13.795 13.795 0 0 0 3.21-7.117c.575-4.182-.741-8.66-3.19-12.534-5.75-9.078-17.679-13.062-25.37-19.799-5.514-4.83-10.995-9.505-15.829-15.001 1.89-2.982 1.389-7.23-1.602-10.218l-7.757-7.752c27.532-32.753 45.404-73.85 49.303-118.955h10.982c4.232 0 7.591-2.649 8.365-6.091 7.303-.473 14.494.094 21.811.574 10.206.668 21.456 6.284 31.951 3.923 6.055-1.362 11.214-5.01 13.11-10.24 1.116-3.136 1.017-6.737.763-9.979"/>
        <filter id="a" width="104.8%" height="104.8%" x="-1.6%" y="-1.6%" filterUnits="objectBoundingBox">
            <feMorphology in="SourceAlpha" operator="dilate" radius="1.5" result="shadowSpreadOuter1"/>
            <feOffset dx="5" dy="5" in="shadowSpreadOuter1" result="shadowOffsetOuter1"/>
            <feGaussianBlur in="shadowOffsetOuter1" result="shadowBlurOuter1" stdDeviation="2.5"/>
            <feColorMatrix in="shadowBlurOuter1" values="0 0 0 0 0 0 0 0 0 0 0 0 0 0 0 0 0 0 0.101972247 0"/>
        </filter>
    </defs>
    <g fill="none" fill-rule="evenodd">
        <g transform="translate(0 -.295)">
            <use fill="#000" filter="url(#a)" xlink:href="#b"/>
            <use fill="#FFD3C4" xlink:href="#b"/>
        </g>
        <path fill="#FFF" d="M312.776 180.18c3.639-.586 6.482-4.062 6.482-8.451v-10.273c24.915 3.303 47.726 13.095 66.767 27.643l-7.263 7.257c-2.898 2.895-3.452 6.97-1.776 9.94l-35.83 35.8c-2.971-1.674-7.05-1.12-9.948 1.774l-3.224 3.222c-2.797-1.428-5.7-2.662-8.726-3.642v-4.522c0-4.39-2.843-7.865-6.482-8.453V180.18zM281.926 161.456v10.273c0 4.095 2.49 7.371 5.775 8.285v50.628c-3.285.915-5.775 4.19-5.775 8.284v4.524a59.205 59.205 0 0 0-8.726 3.642l-3.224-3.222c-3.103-3.102-7.577-3.549-10.568-1.393l-35.597-35.56c2.157-2.99 1.71-7.459-1.396-10.56l-7.263-7.258c19.04-14.55 41.851-24.334 66.774-27.643"/>
        <path fill="#EC926A" d="M300.591 332.784c-17.65 0-31.961-14.298-31.961-31.935s14.311-31.935 31.961-31.935c17.652 0 31.962 14.298 31.962 31.935s-14.31 31.935-31.962 31.935"/>
        <path fill="#FFF" d="M188.756 215.48l7.263 7.258c2.897 2.895 6.976 3.448 9.947 1.774l35.83 35.8c-1.675 2.97-1.121 7.045 1.776 9.94l3.225 3.222a59.777 59.777 0 0 0-3.646 8.718h-4.525c-4.394 0-7.871 2.842-8.46 6.477H179.83c-.588-3.635-4.065-6.477-8.458-6.477H161.09c3.305-24.894 13.099-47.687 27.667-66.711M196.011 378.96l-7.263 7.258c-14.566-19.025-24.36-41.817-27.666-66.711h10.282c4.098 0 7.377-2.489 8.291-5.77h50.672c.914 3.281 4.191 5.77 8.291 5.77h4.526a59.495 59.495 0 0 0 3.646 8.718l-3.224 3.222c-3.106 3.102-3.552 7.57-1.396 10.558l-35.597 35.568c-2.983-2.161-7.457-1.714-10.562 1.388M288.408 421.519c-3.639.586-6.482 4.062-6.482 8.45v10.273c-24.915-3.302-47.726-13.094-66.768-27.642l7.265-7.257c2.897-2.895 3.451-6.972 1.776-9.94l35.83-35.8c2.97 1.674 7.05 1.12 9.947-1.774l3.225-3.222a59.641 59.641 0 0 0 8.725 3.642v4.522c0 4.39 2.843 7.865 6.482 8.453v50.295zM300.591 319.04c-10.052 0-18.205-8.145-18.205-18.19 0-10.046 8.153-18.191 18.205-18.191 10.054 0 18.206 8.145 18.206 18.19 0 10.046-8.152 18.19-18.206 18.19M319.265 440.243v-10.274c0-4.095-2.49-7.363-5.776-8.283v-50.63c3.287-.913 5.776-4.189 5.776-8.284v-4.522a59.374 59.374 0 0 0 8.725-3.644l3.225 3.224c3.104 3.1 7.578 3.547 10.568 1.392l35.596 35.568c-2.155 2.988-1.708 7.458 1.397 10.558l7.263 7.259c-19.047 14.542-41.858 24.327-66.774 27.636M412.436 386.212l-7.263-7.259c-2.9-2.895-6.977-3.448-9.948-1.773l-35.83-35.802c1.676-2.967 1.122-7.042-1.777-9.939l-3.223-3.22a59.72 59.72 0 0 0 3.645-8.72h4.526c4.392 0 7.87-2.84 8.458-6.477h50.337c.588 3.636 4.067 6.477 8.46 6.477h10.281c-3.312 24.902-13.106 47.694-27.666 66.713M429.82 282.192c-4.098 0-7.37 2.488-8.291 5.77h-50.672c-.914-3.282-4.191-5.77-8.291-5.77h-4.526a59.495 59.495 0 0 0-3.645-8.718l3.223-3.222c3.106-3.102 3.552-7.57 1.396-10.56l35.598-35.567c2.99 2.156 7.464 1.707 10.567-1.395l7.264-7.257c14.567 19.025 24.36 41.811 27.665 66.713H429.82v.006z"/>
        <path fill="#FFF" d="M300.593 129.796c-94.4 0-171.2 76.736-171.2 171.057 0 94.322 76.8 171.057 171.2 171.057 94.4 0 171.2-76.735 171.2-171.057 0-94.321-76.8-171.057-171.2-171.057m0 361.025c-104.835 0-190.127-85.218-190.127-189.968 0-104.748 85.292-189.967 190.127-189.967 104.836 0 190.125 85.22 190.125 189.967 0 104.75-85.289 189.968-190.125 189.968"/>
        <g fill="#EB5624">
            <path d="M121.02 300.852c-.03 0-.047-.492-.052-1.455l.021-4.273c.01-.94.024-1.992.038-3.152.037-1.16.147-2.424.228-3.796.188-2.742.338-5.915.832-9.455.22-1.771.419-3.65.693-5.613l1.062-6.147c.323-2.152.861-4.357 1.378-6.66.52-2.302 1.024-4.702 1.756-7.137a174.299 174.299 0 0 1 12.162-32.25 183.038 183.038 0 0 1 22.7-35.077c9.66-11.538 21.327-22.83 35.235-32.534.861-.613 1.729-1.23 2.595-1.848l2.696-1.737c1.814-1.143 3.596-2.36 5.467-3.459l5.673-3.268c1.893-1.109 3.898-2.039 5.86-3.075 7.921-3.978 16.265-7.59 25.06-10.385 8.777-2.817 17.893-5.187 27.315-6.645a195.673 195.673 0 0 1 28.854-2.328 195.73 195.73 0 0 1 28.857 2.328c9.42 1.458 18.537 3.828 27.312 6.645 8.796 2.795 17.138 6.407 25.062 10.385 1.959 1.036 3.964 1.966 5.859 3.075 1.902 1.096 3.79 2.185 5.672 3.268 1.87 1.098 3.654 2.316 5.467 3.46l2.696 1.736 2.595 1.848c13.909 9.704 25.573 20.996 35.235 32.534a182.955 182.955 0 0 1 22.7 35.077 174.312 174.312 0 0 1 12.162 32.25c.733 2.435 1.237 4.835 1.758 7.137.514 2.303 1.054 4.508 1.378 6.66.37 2.142.722 4.193 1.06 6.147.273 1.964.472 3.842.694 5.613.494 3.54.642 6.713.83 9.455.083 1.372.19 2.637.23 3.796.012 1.16.025 2.211.036 3.152l.022 4.273c-.004.963-.022 1.455-.052 1.455s-.072-.492-.126-1.453c-.044-.96-.11-2.391-.194-4.266-.038-.936-.077-1.985-.122-3.14-.064-1.156-.2-2.415-.312-3.78-.24-2.731-.441-5.889-.986-9.41-.246-1.762-.469-3.628-.767-5.578l-1.13-6.108c-.346-2.139-.906-4.327-1.442-6.613-.542-2.285-1.066-4.667-1.817-7.082a175.95 175.95 0 0 0-12.326-31.96 183.263 183.263 0 0 0-22.708-34.703c-9.632-11.404-21.235-22.561-35.045-32.142l-2.578-1.827c-.89-.568-1.78-1.14-2.675-1.713-1.802-1.128-3.57-2.332-5.426-3.415-1.866-1.07-3.74-2.145-5.628-3.225-1.878-1.097-3.867-2.013-5.811-3.036-7.858-3.926-16.128-7.491-24.841-10.247-8.697-2.78-17.727-5.12-27.059-6.556a194.664 194.664 0 0 0-28.58-2.298 194.68 194.68 0 0 0-28.581 2.298c-9.33 1.437-18.36 3.775-27.056 6.556-8.716 2.756-16.985 6.321-24.842 10.247-1.944 1.023-3.934 1.94-5.812 3.036-1.887 1.08-3.762 2.155-5.628 3.225-1.857 1.083-3.624 2.287-5.425 3.415-.895.573-1.787 1.145-2.677 1.713-.86.612-1.719 1.22-2.576 1.827-13.812 9.58-25.413 20.738-35.045 32.142a183.116 183.116 0 0 0-22.708 34.703 175.839 175.839 0 0 0-12.327 31.96c-.75 2.415-1.276 4.797-1.815 7.082-.537 2.286-1.099 4.474-1.443 6.613l-1.13 6.108c-.297 1.95-.522 3.816-.767 5.579-.544 3.52-.748 6.678-.988 9.41-.108 1.364-.246 2.623-.31 3.78l-.122 3.139c-.086 1.875-.152 3.306-.194 4.266-.054.961-.096 1.453-.126 1.453"/>
            <path d="M121.137 296.267c-.03 0-.047-.486-.054-1.434.02-.946-.045-2.36.073-4.204l.437-6.828c.182-2.697.644-5.787 1.033-9.28 1.072-6.937 2.502-15.45 5.401-25.022a179.13 179.13 0 0 1 12.605-31.478c5.765-11.178 13.233-22.89 22.903-34.125 1.211-1.4 2.432-2.812 3.666-4.236l3.923-4.13 1.987-2.087c.697-.668 1.398-1.335 2.1-2.007 1.406-1.343 2.824-2.694 4.254-4.056 5.907-5.23 12.193-10.403 19.079-15.105 13.724-9.443 29.483-17.46 46.765-23.028 8.652-2.723 17.63-4.976 26.895-6.43a198.266 198.266 0 0 1 28.389-2.245c9.626.07 19.123.833 28.388 2.244 9.264 1.455 18.245 3.708 26.895 6.43 17.282 5.569 33.041 13.586 46.767 23.029 6.886 4.702 13.172 9.874 19.08 15.105l4.254 4.056c.7.672 1.4 1.34 2.099 2.007.663.699 1.327 1.395 1.986 2.088l3.926 4.13c1.23 1.423 2.451 2.836 3.663 4.235 9.67 11.235 17.138 22.947 22.903 34.125a178.898 178.898 0 0 1 12.604 31.478c2.899 9.571 4.33 18.085 5.402 25.023.388 3.492.85 6.582 1.032 9.279.175 2.698.319 4.983.437 6.828.12 1.845.056 3.258.07 4.204-.004.948-.019 1.434-.05 1.434-.029 0-.07-.483-.123-1.428-.075-.943-.068-2.353-.24-4.19l-.601-6.8c-.234-2.685-.748-5.759-1.186-9.231-1.17-6.896-2.687-15.351-5.658-24.846a180.815 180.815 0 0 0-12.764-31.193c-5.795-11.065-13.266-22.653-22.907-33.759l-3.653-4.19-3.91-4.08-1.976-2.063-2.09-1.983-4.232-4.008c-5.877-5.168-12.123-10.277-18.96-14.92-13.632-9.323-29.26-17.237-46.386-22.732-8.574-2.683-17.47-4.91-26.647-6.343a197.197 197.197 0 0 0-28.123-2.214c-9.535.07-18.943.82-28.122 2.214-9.178 1.434-18.073 3.66-26.647 6.343-17.128 5.495-32.755 13.409-46.387 22.733-6.836 4.642-13.083 9.751-18.96 14.919l-4.231 4.008-2.091 1.983-1.977 2.064c-1.314 1.37-2.617 2.731-3.908 4.08-1.23 1.408-2.446 2.805-3.654 4.19-9.641 11.105-17.113 22.693-22.908 33.758a180.8 180.8 0 0 0-12.762 31.193c-2.97 9.495-4.49 17.95-5.658 24.846-.437 3.472-.952 6.546-1.186 9.23-.239 2.689-.438 4.961-.6 6.8-.175 1.838-.166 3.248-.242 4.191-.053.945-.093 1.428-.123 1.428"/>
            <path d="M121.253 291.681c-.035 0-.021-.478.018-1.408.05-.932.129-2.315.23-4.13s.227-4.063.585-6.7c.333-2.637.584-5.702 1.24-9.098l.925-5.392c.387-1.878.85-3.837 1.306-5.892.23-1.026.468-2.073.708-3.144l.9-3.236c.647-2.188 1.176-4.506 1.989-6.826 2.909-9.383 7.119-19.814 12.972-30.725 5.877-10.891 13.516-22.201 23.106-33.171 9.525-11.025 21.272-21.436 34.79-30.699 6.833-4.525 14.089-8.782 21.795-12.568 7.749-3.684 15.868-7.031 24.377-9.73 8.527-2.624 17.37-4.763 26.476-6.214a200.998 200.998 0 0 1 27.923-2.161 200.98 200.98 0 0 1 27.923 2.161c9.105 1.45 17.95 3.59 26.476 6.215 8.51 2.698 16.628 6.045 24.377 9.729 7.705 3.786 14.962 8.043 21.796 12.568 13.517 9.263 25.264 19.674 34.79 30.699 9.59 10.97 17.23 22.28 23.105 33.171 5.855 10.911 10.064 21.342 12.974 30.725.81 2.32 1.34 4.638 1.986 6.826l.9 3.236c.241 1.07.477 2.118.71 3.144.453 2.055.918 4.014 1.305 5.892l.927 5.392c.654 3.396.905 6.46 1.24 9.098.354 2.637.48 4.885.584 6.7.1 1.815.178 3.198.23 4.13.038.93.052 1.408.017 1.408-.012 0-.034-.117-.067-.35l-.122-1.05-.398-4.11c-.156-1.808-.334-4.046-.743-6.668-.387-2.624-.687-5.672-1.39-9.047-.314-1.692-.645-3.48-.995-5.358-.408-1.866-.895-3.811-1.37-5.851l-.74-3.122c-.304-1.048-.615-2.118-.93-3.21-.665-2.172-1.215-4.471-2.042-6.771-2.98-9.307-7.243-19.642-13.125-30.445-5.903-10.784-13.546-21.972-23.106-32.817-9.497-10.9-21.184-21.186-34.608-30.335-6.787-4.467-13.989-8.67-21.632-12.408-7.686-3.636-15.737-6.939-24.171-9.601-8.452-2.59-17.215-4.701-26.236-6.134a200.054 200.054 0 0 0-27.665-2.131c-9.378.073-18.63.796-27.665 2.131-9.022 1.433-17.784 3.543-26.236 6.134-8.435 2.662-16.483 5.965-24.171 9.601-7.643 3.738-14.845 7.941-21.632 12.408-13.424 9.149-25.111 19.436-34.608 30.335-9.56 10.845-17.201 22.033-23.106 32.817-5.882 10.803-10.144 21.138-13.125 30.445-.827 2.3-1.375 4.599-2.042 6.771-.315 1.092-.626 2.162-.93 3.21l-.74 3.122c-.475 2.04-.962 3.985-1.37 5.851-.35 1.878-.681 3.666-.995 5.358-.703 3.375-1.003 6.423-1.39 9.047-.409 2.622-.587 4.86-.743 6.667-.176 1.808-.307 3.186-.397 4.112l-.123 1.048c-.034.234-.054.351-.067.351"/>
            <path d="M121.597 287.106c-.028 0-.02-.47.021-1.387.062-.914.075-2.28.269-4.056l.755-6.572c.125-1.302.366-2.69.624-4.173l.81-4.741c.246-1.682.7-3.42 1.097-5.264.43-1.836.808-3.781 1.34-5.78l1.736-6.233c.559-2.175 1.402-4.355 2.135-6.656a177.52 177.52 0 0 1 13.37-29.934c5.964-10.602 13.62-21.613 23.173-32.29 4.875-5.24 10.045-10.566 15.876-15.497 2.83-2.562 5.918-4.902 8.997-7.336 1.531-1.227 3.189-2.31 4.792-3.485 1.624-1.149 3.23-2.346 4.948-3.4l5.116-3.285c1.742-1.06 3.537-2.054 5.32-3.093l2.69-1.547c.923-.474 1.849-.95 2.777-1.425 1.863-.939 3.708-1.942 5.616-2.84 7.625-3.622 15.67-6.74 24.021-9.428a200.462 200.462 0 0 1 26.056-6.005c8.971-1.296 18.152-2 27.456-2.077 9.306.078 18.487.781 27.458 2.077a200.462 200.462 0 0 1 26.056 6.005c8.35 2.688 16.396 5.806 24.021 9.427 1.907.899 3.753 1.902 5.616 2.841l2.778 1.425 2.69 1.547c1.782 1.04 3.579 2.032 5.32 3.093 1.715 1.1 3.42 2.197 5.115 3.285 1.717 1.054 3.324 2.251 4.948 3.4 1.603 1.175 3.26 2.258 4.792 3.485 3.08 2.434 6.167 4.774 8.997 7.336 5.83 4.93 11.001 10.257 15.876 15.497 9.554 10.677 17.209 21.688 23.173 32.29a177.399 177.399 0 0 1 13.37 29.934c.733 2.301 1.576 4.48 2.135 6.656l1.735 6.234c.533 1.998.912 3.943 1.341 5.78.398 1.843.85 3.581 1.097 5.263l.81 4.741c.256 1.484.5 2.871.624 4.173.299 2.597.551 4.796.757 6.572.19 1.776.207 3.142.267 4.056.042.916.048 1.387.02 1.387-.03 0-.092-.463-.188-1.374-.116-.907-.186-2.268-.433-4.035-.246-1.767-.55-3.952-.912-6.535-.149-1.296-.416-2.676-.697-4.15l-.88-4.71c-.27-1.673-.746-3.398-1.166-5.23-.452-1.824-.85-3.754-1.402-5.739-.575-1.977-1.174-4.04-1.796-6.186-.576-2.158-1.441-4.318-2.189-6.601a179.178 179.178 0 0 0-13.514-29.658c-5.99-10.496-13.646-21.39-23.172-31.946-4.86-5.18-10.008-10.444-15.808-15.316-2.816-2.532-5.888-4.842-8.947-7.248-1.522-1.212-3.17-2.282-4.764-3.441-1.612-1.136-3.208-2.32-4.915-3.36-1.683-1.074-3.376-2.157-5.078-3.245-1.731-1.047-3.513-2.028-5.283-3.054l-2.67-1.527c-.917-.468-1.836-.936-2.756-1.407-1.85-.925-3.68-1.918-5.572-2.805-7.564-3.573-15.544-6.65-23.82-9.304a199.634 199.634 0 0 0-25.827-5.925 203.322 203.322 0 0 0-27.207-2.052c-9.22.08-18.318.772-27.207 2.052a199.669 199.669 0 0 0-25.824 5.925c-8.277 2.653-16.256 5.731-23.82 9.304-1.894.887-3.722 1.88-5.573 2.805-.92.471-1.84.94-2.756 1.407-.894.51-1.782 1.02-2.67 1.527-1.77 1.026-3.552 2.007-5.283 3.054-1.7 1.088-3.395 2.17-5.078 3.245-1.707 1.04-3.303 2.224-4.915 3.36-1.593 1.16-3.242 2.229-4.764 3.44-3.06 2.407-6.13 4.717-8.947 7.249-5.8 4.872-10.949 10.137-15.808 15.316-9.526 10.556-17.18 21.45-23.174 31.946-6 10.5-10.334 20.595-13.512 29.658-.75 2.283-1.613 4.443-2.19 6.601-.622 2.147-1.22 4.21-1.795 6.186-.552 1.985-.951 3.915-1.402 5.74-.419 1.83-.896 3.556-1.165 5.228-.31 1.664-.605 3.236-.881 4.712-.28 1.473-.548 2.853-.698 4.149l-.911 6.535c-.247 1.767-.316 3.128-.433 4.035-.096.91-.159 1.374-.189 1.374"/>
            <path d="M121.946 282.532c-.032-.003.001-.464.089-1.36.094-.893.237-2.227.423-3.973.195-1.746.407-3.912.88-6.438l.693-4.092c.13-.729.242-1.485.395-2.257a11200.728 11200.728 0 0 0 1.684-7.534c.403-1.811.991-3.667 1.514-5.632 1.006-3.942 2.496-8.104 4.008-12.604a180.416 180.416 0 0 1 13.754-29.147c6.053-10.306 13.683-21.067 23.316-31.34 9.605-10.271 20.992-20.288 34.355-28.81 13.265-8.652 28.448-15.811 44.922-20.9 8.248-2.524 16.838-4.396 25.627-5.81 8.817-1.286 17.843-1.926 26.987-2.02 9.144.094 18.171.734 26.986 2.02 8.79 1.414 17.38 3.286 25.628 5.81 16.475 5.089 31.658 12.248 44.922 20.9 13.362 8.522 24.75 18.539 34.356 28.81 9.633 10.273 17.261 21.034 23.314 31.34a180.416 180.416 0 0 1 13.755 29.147c1.511 4.5 3.004 8.662 4.008 12.604.522 1.965 1.11 3.82 1.513 5.631.404 1.81.79 3.53 1.155 5.16.181.815.357 1.607.53 2.375.154.772.265 1.528.395 2.257l.693 4.092c.474 2.526.685 4.692.88 6.438l.425 3.974c.085.895.118 1.356.087 1.359-.012 0-.04-.111-.084-.336l-.168-1.005c-.133-.89-.33-2.213-.586-3.948-.248-1.737-.509-3.89-1.031-6.4l-.766-4.067c-.141-.725-.266-1.476-.43-2.244-.184-.762-.372-1.55-.565-2.358l-1.22-5.124c-.424-1.799-1.032-3.64-1.574-5.59-1.046-3.913-2.573-8.042-4.117-12.503a182.344 182.344 0 0 0-13.892-28.877c-6.079-10.201-13.706-20.85-23.311-31.006-9.578-10.152-20.905-20.052-34.18-28.467-13.177-8.546-28.24-15.612-44.574-20.637-8.178-2.49-16.691-4.335-25.404-5.733-8.736-1.268-17.682-1.9-26.745-1.994-9.063.095-18.01.726-26.745 1.994-8.713 1.398-17.227 3.243-25.404 5.733-16.332 5.025-31.397 12.091-44.573 20.637-13.274 8.415-24.601 18.315-34.18 28.467-9.606 10.156-17.234 20.805-23.312 31.006a182.344 182.344 0 0 0-13.893 28.877c-1.543 4.46-3.07 8.59-4.115 12.504-.543 1.948-1.151 3.79-1.574 5.589l-1.221 5.124-.564 2.358c-.166.768-.29 1.52-.431 2.244l-.766 4.066c-.522 2.511-.784 4.664-1.031 6.4-.257 1.736-.454 3.06-.584 3.949l-.17 1.005c-.043.225-.072.336-.084.336"/>
            <path d="M122.524 277.981c-.029-.003.001-.456.088-1.338.1-.877.185-2.194.454-3.9.283-1.702.633-3.81 1.049-6.3l.333-1.938a3725.222 3725.222 0 0 1 1.467-6.592c.326-1.611.794-3.278 1.288-5.031.488-1.757.998-3.597 1.534-5.522 1.299-3.775 2.515-7.951 4.303-12.264a176.256 176.256 0 0 1 14.019-28.393c6.128-10.025 13.877-20.4 23.428-30.405 4.723-5.057 10.046-9.85 15.663-14.62l4.371-3.445 2.211-1.74 2.308-1.644c1.543-1.1 3.095-2.208 4.66-3.322 1.614-1.04 3.24-2.085 4.876-3.138l2.462-1.581 2.55-1.473c1.707-.981 3.423-1.97 5.151-2.961l5.35-2.745c.9-.452 1.786-.94 2.704-1.365l2.776-1.257c7.368-3.486 15.217-6.314 23.307-8.804l6.139-1.744c2.068-.533 4.167-.978 6.263-1.476l3.156-.719 3.199-.571c2.14-.362 4.277-.813 6.443-1.104 8.662-1.274 17.535-1.851 26.517-1.96 8.983.109 17.857.686 26.516 1.96 2.17.29 4.304.742 6.443 1.104l3.2.571 3.157.719c2.094.498 4.194.943 6.263 1.476l6.137 1.744c8.09 2.49 15.94 5.318 23.308 8.804l2.775 1.257c.92.426 1.806.913 2.706 1.365l5.35 2.745 5.15 2.96 2.55 1.474c.822.528 1.643 1.056 2.463 1.58l4.874 3.139 4.662 3.322 2.307 1.644c.739.582 1.476 1.163 2.211 1.74 1.467 1.157 2.925 2.306 4.374 3.446 5.614 4.768 10.94 9.562 15.66 14.619 9.552 10.005 17.301 20.38 23.43 30.405a176.38 176.38 0 0 1 14.018 28.393c1.786 4.313 3.004 8.489 4.302 12.264.533 1.925 1.047 3.765 1.535 5.522.492 1.753.962 3.42 1.288 5.03.355 1.601.693 3.113 1.01 4.534.156.71.31 1.395.455 2.06l.335 1.937 1.048 6.3c.27 1.706.354 3.023.456 3.9.085.882.114 1.335.087 1.338-.027.003-.113-.442-.25-1.315-.155-.87-.292-2.18-.612-3.872-.324-1.692-.723-3.786-1.198-6.26l-.37-1.927-.49-2.044c-.336-1.41-.698-2.913-1.078-4.502-.347-1.599-.836-3.255-1.351-4.995-.507-1.741-1.037-3.57-1.594-5.48-1.336-3.745-2.588-7.886-4.406-12.163-3.43-8.619-7.99-18.2-14.151-28.128-6.15-9.922-13.9-20.187-23.423-30.08-4.708-4.999-10.01-9.736-15.598-14.45a4734.616 4734.616 0 0 1-6.547-5.124l-2.295-1.623a3744.85 3744.85 0 0 0-4.633-3.282l-4.843-3.1-2.447-1.562-2.532-1.455-5.117-2.925a7703.36 7703.36 0 0 0-5.308-2.71c-.895-.445-1.775-.928-2.686-1.348l-2.755-1.24c-7.31-3.443-15.098-6.233-23.119-8.69l-6.086-1.723c-2.05-.525-4.131-.966-6.21-1.455l-3.13-.71-3.17-.565c-2.121-.356-4.238-.803-6.388-1.09-8.584-1.256-17.378-1.825-26.283-1.933-8.904.108-17.7.677-26.284 1.934-2.149.286-4.264.733-6.387 1.089l-3.172.565-3.128.71c-2.078.489-4.159.93-6.21 1.455-2.038.577-4.065 1.152-6.086 1.723-8.022 2.457-15.808 5.247-23.12 8.69l-2.755 1.24c-.911.42-1.791.903-2.686 1.349-1.779.907-3.549 1.81-5.308 2.709l-5.116 2.925-2.532 1.455-2.447 1.563-4.844 3.099c-1.554 1.1-3.099 2.194-4.633 3.282l-2.292 1.623-2.2 1.72c-1.46 1.143-2.91 2.279-4.349 3.404-5.587 4.714-10.89 9.451-15.596 14.45-9.526 9.893-17.274 20.158-23.426 30.08-6.16 9.929-10.72 19.51-14.149 28.128-1.818 4.277-3.068 8.418-4.406 12.164l-1.594 5.48c-.515 1.74-1.005 3.395-1.353 4.994l-1.076 4.502-.493 2.044a11413.192 11413.192 0 0 1-1.567 8.187c-.32 1.692-.455 3.002-.611 3.872-.138.873-.22 1.318-.25 1.315"/>
            <path d="M123.107 273.43c-.027-.004.026-.445.152-1.306.135-.856.336-2.134.602-3.808.277-1.673.576-3.753 1.154-6.165.269-1.212.559-2.516.866-3.91.155-.697.317-1.418.48-2.16.202-.734.406-1.489.62-2.266.867-3.103 1.748-6.582 3.059-10.282.648-1.851 1.2-3.827 2.002-5.8l2.405-6.18c3.539-8.45 8.176-17.843 14.378-27.584 6.191-9.737 13.948-19.812 23.45-29.526 9.477-9.73 20.865-18.903 33.818-27.01 6.538-3.947 13.393-7.775 20.73-10.978 3.611-1.732 7.418-3.11 11.206-4.633 1.914-.71 3.872-1.33 5.819-2.003.976-.33 1.954-.663 2.935-.994.995-.287 1.992-.575 2.992-.861l6.032-1.701 6.158-1.424c2.052-.519 4.15-.86 6.25-1.236 2.104-.345 4.194-.823 6.332-1.059 8.504-1.263 17.225-1.777 26.046-1.9 8.822.123 17.541.637 26.047 1.9 2.136.236 4.23.714 6.332 1.06 2.098.376 4.196.716 6.249 1.235l6.16 1.424c2.017.57 4.029 1.137 6.03 1.7 1 .287 1.996.575 2.992.862.981.331 1.959.664 2.935.994 1.947.674 3.904 1.293 5.818 2.003 3.79 1.522 7.595 2.9 11.206 4.633 7.338 3.203 14.193 7.03 20.732 10.977 12.951 8.108 24.34 17.28 33.817 27.01 9.501 9.715 17.258 19.79 23.45 29.527 6.201 9.74 10.839 19.134 14.377 27.583.832 2.135 1.633 4.196 2.405 6.18.802 1.974 1.354 3.95 2.003 5.8 1.312 3.701 2.191 7.18 3.06 10.283l.618 2.267c.166.74.325 1.462.482 2.158.307 1.395.596 2.699.864 3.91.58 2.413.879 4.493 1.156 6.166l.602 3.808c.126.861.179 1.302.15 1.307-.025.004-.13-.43-.309-1.281l-.755-3.777c-.329-1.661-.674-3.726-1.3-6.122-.29-1.203-.6-2.497-.935-3.883l-.514-2.144-.65-2.25c-.911-3.08-1.831-6.532-3.181-10.201-.665-1.838-1.237-3.798-2.055-5.754l-2.452-6.128c-3.6-8.376-8.28-17.68-14.503-27.322-6.212-9.638-13.968-19.607-23.44-29.21-9.451-9.624-20.784-18.684-33.653-26.694-6.496-3.897-13.3-7.68-20.585-10.84-3.583-1.712-7.36-3.071-11.118-4.575-1.9-.702-3.842-1.313-5.772-1.977l-2.911-.983-2.967-.849-5.982-1.678-6.107-1.406c-2.034-.514-4.115-.847-6.196-1.221-2.085-.337-4.158-.813-6.277-1.045-8.432-1.245-17.076-1.754-25.823-1.875-8.746.121-17.39.63-25.822 1.875-2.119.232-4.193.708-6.277 1.045-2.082.374-4.163.707-6.197 1.221l-6.107 1.406c-2.003.562-3.997 1.12-5.981 1.678l-2.967.849-2.912.983c-1.93.664-3.873 1.275-5.773 1.977-3.757 1.504-7.534 2.863-11.118 4.575-7.282 3.16-14.089 6.943-20.585 10.84-12.869 8.01-24.201 17.07-33.65 26.694-9.473 9.603-17.229 19.572-23.442 29.21-6.224 9.642-10.904 18.946-14.502 27.322-.849 2.117-1.667 4.16-2.453 6.128-.819 1.956-1.39 3.916-2.056 5.754-1.35 3.669-2.268 7.122-3.18 10.201l-.65 2.25a781.39 781.39 0 0 1-.514 2.144c-.332 1.386-.644 2.68-.934 3.883-.626 2.396-.973 4.461-1.302 6.122l-.753 3.777c-.179.85-.284 1.285-.311 1.28"/>
            <path d="M123.915 268.914c-.029-.004.024-.44.148-1.284.142-.841.284-2.106.631-3.735.712-3.252 1.657-8.077 3.448-14.152.212-.764.43-1.547.652-2.352.263-.792.531-1.605.81-2.44l1.739-5.245c.632-1.82 1.407-3.676 2.15-5.63.38-.974.765-1.967 1.157-2.978.42-1.002.888-2.004 1.342-3.033.943-2.042 1.812-4.206 2.907-6.345l3.366-6.63c1.265-2.217 2.567-4.497 3.901-6.839 1.381-2.313 2.917-4.617 4.426-7.015 6.268-9.434 13.983-19.26 23.513-28.604 9.505-9.346 20.69-18.339 33.52-26.131 12.89-7.658 27.303-14.363 43.048-18.777 7.826-2.35 16.004-3.977 24.342-5.226 2.093-.267 4.193-.534 6.303-.801 2.109-.246 4.24-.348 6.372-.53l3.206-.243c1.068-.069 2.145-.066 3.221-.103 2.152-.054 4.31-.108 6.477-.164 2.164.056 4.323.11 6.476.164 1.075.037 2.151.034 3.222.103l3.203.243c2.132.182 4.264.284 6.373.53l6.302.8c8.338 1.25 16.517 2.876 24.343 5.227 15.745 4.414 30.159 11.12 43.047 18.777 12.831 7.792 24.015 16.785 33.521 26.131 9.53 9.344 17.245 19.17 23.513 28.604 1.508 2.398 3.044 4.702 4.425 7.015 1.335 2.342 2.638 4.622 3.902 6.839l3.367 6.63c1.093 2.139 1.963 4.303 2.905 6.345.455 1.029.922 2.03 1.342 3.033l1.158 2.979c.743 1.953 1.52 3.808 2.15 5.63l1.741 5.243c.276.836.545 1.649.808 2.44l.651 2.353c1.793 6.075 2.739 10.9 3.449 14.152.346 1.63.49 2.894.63 3.735.125.845.177 1.28.15 1.284-.027.005-.129-.42-.304-1.255-.194-.83-.386-2.085-.78-3.7-.81-3.226-1.846-8.017-3.721-14.045-.222-.756-.449-1.535-.682-2.334-.273-.786-.55-1.593-.837-2.421-.572-1.653-1.171-3.389-1.797-5.204-.65-1.803-1.442-3.643-2.201-5.581-.388-.966-.782-1.952-1.183-2.954-.427-.993-.902-1.984-1.362-3.006-.958-2.023-1.84-4.168-2.947-6.288l-3.4-6.568-3.929-6.771c-1.389-2.292-2.93-4.572-4.444-6.947-6.288-9.337-14-19.059-23.502-28.297-9.478-9.24-20.609-18.126-33.357-25.824-12.807-7.563-27.114-14.186-42.73-18.543-7.765-2.32-15.873-3.923-24.142-5.157-2.076-.263-4.157-.528-6.248-.792-2.093-.243-4.207-.342-6.319-.522l-3.176-.24c-1.062-.07-2.13-.065-3.197-.102l-6.42-.162-6.423.162c-1.067.037-2.134.033-3.194.102l-3.179.24c-2.112.18-4.226.279-6.318.522-2.091.264-4.172.53-6.248.792-8.268 1.234-16.378 2.836-24.142 5.157-15.616 4.357-29.923 10.98-42.73 18.543-12.749 7.698-23.879 16.584-33.358 25.824-9.5 9.238-17.213 18.96-23.502 28.297-1.513 2.375-3.053 4.655-4.442 6.947l-3.93 6.77-3.399 6.57c-1.106 2.119-1.99 4.264-2.948 6.287-.46 1.022-.936 2.013-1.362 3.006-.4 1.002-.796 1.988-1.183 2.954-.76 1.938-1.55 3.778-2.2 5.581-.627 1.815-1.224 3.55-1.796 5.204-.287.828-.566 1.635-.84 2.42-.232.8-.459 1.579-.681 2.335-1.874 6.028-2.911 10.82-3.72 14.046-.395 1.614-.587 2.87-.78 3.699-.177.835-.279 1.26-.304 1.255"/>
            <path d="M124.736 264.401c-.026-.004.045-.429.21-1.25l.761-3.638c.353-1.596.734-3.585 1.408-5.88.317-1.152.656-2.394 1.023-3.722.36-1.329.738-2.746 1.255-4.213 1.007-2.937 1.963-6.264 3.408-9.762.693-1.758 1.378-3.61 2.163-5.505l2.608-5.837c3.745-7.993 8.558-16.867 14.866-26.037a179.19 179.19 0 0 1 23.54-27.693c9.455-9.034 20.471-17.832 33.209-25.246l4.818-2.775c1.622-.915 3.316-1.725 4.985-2.601 3.32-1.796 6.838-3.285 10.344-4.892 7.108-2.979 14.491-5.775 22.236-7.867 15.409-4.47 32.022-6.675 49.023-6.81 17 .135 33.613 2.34 49.024 6.81 7.743 2.092 15.126 4.888 22.235 7.867 3.507 1.607 7.022 3.096 10.343 4.892 1.67.876 3.363 1.686 4.987 2.6l4.816 2.776c12.741 7.414 23.756 16.212 33.211 25.246 9.444 9.07 17.24 18.527 23.538 27.693 6.308 9.17 11.121 18.044 14.867 26.037l2.608 5.837c.786 1.894 1.47 3.747 2.163 5.505 1.444 3.498 2.4 6.825 3.41 9.762.514 1.467.892 2.884 1.254 4.213l1.021 3.722c.676 2.295 1.055 4.284 1.408 5.88.335 1.6.59 2.82.763 3.639.163.82.234 1.245.209 1.25-.024.004-.148-.407-.36-1.219-.206-.811-.511-2.017-.909-3.6-.4-1.582-.827-3.556-1.546-5.832-.335-1.144-.698-2.376-1.086-3.693-.383-1.318-.78-2.725-1.316-4.179-1.05-2.914-2.044-6.214-3.522-9.682-.712-1.745-1.41-3.58-2.213-5.459l-2.651-5.784c-3.801-7.921-8.653-16.711-14.981-25.788a179.836 179.836 0 0 0-23.528-27.394c-9.428-8.933-20.388-17.628-33.048-24.951-25.097-14.924-56.893-24.618-90.697-24.635-33.805.017-65.6 9.711-90.694 24.635-12.662 7.323-23.624 16.018-33.052 24.95a179.822 179.822 0 0 0-23.526 27.395c-6.33 9.077-11.18 17.867-14.98 25.788-.918 1.998-1.802 3.927-2.654 5.784-.801 1.878-1.5 3.714-2.212 5.459-1.48 3.468-2.473 6.768-3.52 9.682-.538 1.454-.935 2.86-1.317 4.18l-1.087 3.692c-.72 2.276-1.147 4.25-1.545 5.832l-.91 3.6c-.211.812-.333 1.223-.36 1.218"/>
            <path d="M125.768 259.931c-.026-.006.045-.421.207-1.228.179-.801.37-2.015.79-3.561.848-3.092 1.974-7.695 3.99-13.452.884-2.922 2.225-6.04 3.537-9.512.628-1.747 1.509-3.477 2.3-5.328.84-1.83 1.621-3.774 2.644-5.686l3.041-5.997 3.545-6.222c1.189-2.153 2.64-4.23 4.006-6.437 1.35-2.221 2.938-4.362 4.506-6.597a181.236 181.236 0 0 1 23.515-26.814c.584-.552 1.156-1.12 1.755-1.665.613-.53 1.227-1.063 1.842-1.599 1.233-1.072 2.476-2.15 3.73-3.241 2.548-2.124 5.227-4.18 7.924-6.284 5.545-4.008 11.347-8.03 17.65-11.572 24.894-14.643 56.414-23.993 89.843-24.05 33.43.057 64.95 9.407 89.843 24.05 6.303 3.543 12.105 7.564 17.65 11.572 2.698 2.105 5.376 4.16 7.924 6.284l3.73 3.241 1.841 1.6c.6.544 1.173 1.112 1.757 1.664a181.309 181.309 0 0 1 23.514 26.814c1.567 2.235 3.157 4.376 4.505 6.597 1.366 2.207 2.818 4.284 4.007 6.437 1.216 2.136 2.399 4.209 3.544 6.222l3.043 5.997c1.021 1.912 1.803 3.856 2.642 5.686.795 1.851 1.674 3.58 2.302 5.328 1.312 3.473 2.651 6.59 3.537 9.512 2.014 5.757 3.14 10.36 3.989 13.452.42 1.546.61 2.76.79 3.56.161.808.232 1.223.206 1.23-.024.005-.144-.4-.352-1.193-.229-.79-.467-1.99-.934-3.522-.94-3.062-2.154-7.628-4.247-13.337-.925-2.898-2.3-5.99-3.645-9.43-.646-1.734-1.54-3.447-2.348-5.282-.856-1.813-1.65-3.74-2.687-5.635l-3.076-5.943a6125.87 6125.87 0 0 1-3.576-6.162c-1.2-2.132-2.66-4.187-4.033-6.372-1.354-2.2-2.951-4.319-4.52-6.53A182.069 182.069 0 0 0 422.495 170c-.58-.545-1.151-1.107-1.75-1.646-.608-.525-1.22-1.051-1.835-1.58l-3.715-3.205c-2.539-2.1-5.205-4.13-7.89-6.21-5.52-3.961-11.289-7.935-17.553-11.436-24.745-14.466-56.003-23.69-89.16-23.75-33.156.06-64.413 9.284-89.158 23.75-6.264 3.501-12.034 7.475-17.553 11.436-2.686 2.08-5.35 4.11-7.89 6.21l-3.715 3.204-1.836 1.581c-.597.539-1.168 1.101-1.75 1.646a181.862 181.862 0 0 0-23.5 26.527c-1.572 2.211-3.17 4.33-4.524 6.53-1.372 2.185-2.833 4.24-4.03 6.372l-3.575 6.162-3.08 5.943c-1.037 1.894-1.83 3.822-2.685 5.635-.808 1.835-1.704 3.548-2.35 5.282-1.344 3.44-2.72 6.532-3.643 9.43-2.094 5.71-3.307 10.275-4.248 13.337-.466 1.533-.705 2.733-.933 3.522-.208.793-.327 1.198-.354 1.192"/>
            <path d="M126.828 255.468c-.024-.006.065-.41.261-1.191.206-.78.51-1.94.909-3.462.753-3.057 2.194-7.473 4.188-13.11 4.143-11.18 11.303-27.168 24.042-44.44 6.405-8.578 14.166-17.455 23.505-25.922 9.341-8.454 20.24-16.503 32.578-23.49 12.304-7.049 26.175-12.76 41.054-16.851 1.847-.566 3.738-.984 5.636-1.418 1.899-.429 3.795-.901 5.718-1.297 1.93-.347 3.87-.693 5.819-1.041.973-.167 1.944-.366 2.927-.507l2.96-.377c1.978-.249 3.961-.496 5.953-.747 2.001-.151 4.01-.304 6.025-.459l3.028-.223 3.044-.078 6.118-.155 6.117.155 3.046.078 3.027.223c2.015.155 4.023.308 6.026.46 1.99.25 3.975.497 5.952.746l2.96.377c.983.14 1.954.34 2.93.507l5.817 1.04c1.922.397 3.818.87 5.717 1.298 1.897.434 3.79.852 5.636 1.418 14.88 4.09 28.75 9.802 41.054 16.85 12.339 6.988 23.236 15.037 32.577 23.49 9.341 8.468 17.102 17.345 23.504 25.924 12.74 17.27 19.9 33.26 24.044 44.439 1.993 5.637 3.436 10.053 4.188 13.11l.908 3.462c.197.781.286 1.185.262 1.191-.024.006-.16-.384-.404-1.154l-1.05-3.417c-.84-3.025-2.368-7.404-4.436-12.991-4.293-11.085-11.565-26.93-24.338-44.022-6.42-8.492-14.176-17.273-23.49-25.644-9.314-8.36-20.16-16.314-32.425-23.216-12.228-6.964-26.002-12.604-40.768-16.642-1.832-.56-3.71-.972-5.592-1.401-1.883-.422-3.765-.89-5.674-1.281l-5.772-1.028c-.965-.165-1.93-.36-2.905-.5l-2.935-.371-5.907-.738c-1.985-.152-3.977-.302-5.975-.453l-3.004-.222-3.02-.075c-2.018-.053-4.04-.102-6.07-.155-2.028.053-4.052.102-6.07.155l-3.02.075-3.004.222c-1.998.151-3.99.301-5.975.453l-5.906.738-2.936.37c-.975.141-1.94.336-2.905.501l-5.773 1.028c-1.906.391-3.789.86-5.671 1.28-1.883.43-3.763.842-5.594 1.402-14.766 4.038-28.539 9.678-40.768 16.642-12.265 6.902-23.112 14.856-32.425 23.216-9.313 8.371-17.07 17.152-23.489 25.644-12.774 17.092-20.046 32.937-24.34 44.022-2.067 5.587-3.595 9.966-4.436 12.991l-1.046 3.417c-.246.77-.381 1.16-.407 1.154"/>
            <path d="M128.083 251.055c-.024-.007.063-.403.257-1.17.213-.76.444-1.92.938-3.381.967-2.928 2.258-7.299 4.466-12.735 2.097-5.478 5.112-12.004 9.021-19.365 3.99-7.318 9.086-15.364 15.481-23.692a178.644 178.644 0 0 1 23.442-25.044c9.263-8.171 20.028-15.948 32.185-22.697 12.16-6.733 25.784-12.255 40.39-16.209 14.619-3.918 30.286-5.934 46.33-6.048 16.045.114 31.71 2.13 46.33 6.048 14.607 3.954 28.23 9.476 40.39 16.209 12.156 6.749 22.922 14.526 32.184 22.697a178.644 178.644 0 0 1 23.442 25.044c6.396 8.328 11.491 16.374 15.483 23.692 3.908 7.36 6.922 13.887 9.02 19.365 2.208 5.436 3.5 9.807 4.466 12.735.493 1.461.725 2.62.938 3.381.193.767.282 1.163.256 1.17-.022.006-.156-.375-.394-1.128-.262-.747-.536-1.891-1.075-3.336-1.053-2.895-2.426-7.227-4.71-12.615-2.167-5.427-5.245-11.895-9.204-19.188-4.04-7.248-9.168-15.214-15.578-23.455a179.518 179.518 0 0 0-23.427-24.776 183.192 183.192 0 0 0-32.035-22.43c-12.09-6.655-25.62-12.104-40.115-16.01-14.51-3.87-30.05-5.858-45.971-5.972-15.92.114-31.462 2.102-45.971 5.972-14.495 3.906-28.026 9.355-40.114 16.01a183.206 183.206 0 0 0-32.036 22.43 179.518 179.518 0 0 0-23.427 24.776c-6.41 8.24-11.539 16.207-15.579 23.455-3.959 7.293-7.035 13.761-9.204 19.188-2.282 5.388-3.654 9.72-4.71 12.615-.537 1.445-.813 2.59-1.071 3.336-.24.753-.374 1.134-.398 1.128"/>
            <path d="M129.376 246.655c-.021-.007.086-.39.31-1.13.233-.74.582-1.84 1.038-3.281.863-2.901 2.477-7.062 4.631-12.39 2.303-5.26 5.196-11.691 9.319-18.752 1.948-3.594 4.377-7.231 6.872-11.136 1.336-1.893 2.713-3.84 4.124-5.84 1.422-1.991 3.03-3.925 4.594-5.966a181.372 181.372 0 0 1 23.379-24.17c9.194-7.867 19.795-15.427 31.811-21.864 12.01-6.426 25.363-11.81 39.705-15.604 14.364-3.7 29.703-5.708 45.434-5.793 15.73.085 31.07 2.092 45.434 5.793 14.341 3.795 27.695 9.178 39.706 15.604 12.015 6.437 22.617 13.997 31.81 21.864a181.45 181.45 0 0 1 23.378 24.17c1.566 2.041 3.173 3.975 4.595 5.967 1.411 2 2.786 3.946 4.124 5.84 2.495 3.904 4.923 7.541 6.871 11.135 4.123 7.06 7.017 13.491 9.318 18.752 2.156 5.328 3.77 9.489 4.633 12.39.457 1.441.803 2.54 1.04 3.28.224.741.328 1.124.308 1.131-.027.006-.177-.361-.447-1.087l-1.168-3.231c-.947-2.868-2.642-6.99-4.869-12.267-2.37-5.213-5.324-11.585-9.493-18.576-1.972-3.56-4.419-7.161-6.932-11.027l-4.145-5.78c-1.426-1.972-3.038-3.884-4.607-5.906-12.852-15.861-31.118-32.726-55.028-45.518a184.172 184.172 0 0 0-39.44-15.412c-14.257-3.653-29.478-5.634-45.088-5.721-15.611.087-30.83 2.068-45.087 5.72a184.11 184.11 0 0 0-39.44 15.413c-23.91 12.792-42.178 29.657-55.029 45.518-1.569 2.022-3.18 3.934-4.607 5.907-1.42 1.978-2.801 3.906-4.145 5.78-2.512 3.865-4.96 7.466-6.931 11.026-4.17 6.991-7.124 13.363-9.496 18.576-2.225 5.277-3.92 9.399-4.868 12.267-.514 1.419-.904 2.503-1.167 3.23-.271.727-.42 1.094-.447 1.088"/>
            <path d="M130.848 242.31c-.02-.008.082-.383.305-1.11.235-.72.522-1.819 1.071-3.196 1.07-2.761 2.508-6.895 4.882-12.006 2.246-5.164 5.453-11.277 9.476-18.196 4.187-6.82 9.314-14.385 15.74-22.161 12.817-15.501 31.015-31.941 54.735-44.32 11.82-6.184 24.924-11.411 39.005-15.013 14.094-3.534 29.117-5.496 44.53-5.565 15.415.07 30.438 2.031 44.53 5.565 14.082 3.602 27.186 8.83 39.007 15.012 23.721 12.38 41.918 28.82 54.736 44.32 6.425 7.777 11.552 15.341 15.739 22.162 4.023 6.92 7.23 13.032 9.476 18.196 2.375 5.11 3.813 9.245 4.882 12.006.55 1.377.834 2.475 1.071 3.195.223.728.325 1.103.305 1.11-.025.008-.172-.352-.437-1.062-.28-.706-.61-1.788-1.2-3.145-1.15-2.727-2.665-6.82-5.108-11.88-2.313-5.117-5.578-11.17-9.647-18.023-4.232-6.753-9.389-14.24-15.828-21.936-12.844-15.339-30.993-31.591-54.577-43.822-11.754-6.11-24.77-11.271-38.749-14.83-13.993-3.488-28.9-5.425-44.2-5.495-15.297.07-30.205 2.007-44.198 5.496-13.981 3.558-26.995 8.72-38.75 14.829-23.585 12.23-41.732 28.483-54.576 43.822-6.44 7.695-11.598 15.183-15.828 21.936-4.068 6.854-7.334 12.906-9.647 18.023-2.444 5.06-3.959 9.153-5.109 11.88-.591 1.357-.919 2.439-1.2 3.145-.265.71-.41 1.07-.436 1.062"/>
            <path d="M132.379 237.985c-.02-.008.097-.37.35-1.07.259-.697.643-1.734 1.15-3.094.96-2.742 2.725-6.644 5.018-11.658 1.265-2.45 2.562-5.232 4.193-8.166 1.684-2.903 3.378-6.14 5.55-9.407 4.11-6.673 9.387-13.915 15.82-21.402a179.627 179.627 0 0 1 23.152-22.474 179.724 179.724 0 0 1 31.048-20.198c11.633-5.935 24.479-11.03 38.311-14.404 13.813-3.405 28.529-5.294 43.622-5.355 15.095.061 29.807 1.95 43.62 5.355 13.833 3.373 26.68 8.469 38.315 14.404a179.767 179.767 0 0 1 31.046 20.198 179.724 179.724 0 0 1 23.152 22.474c6.435 7.487 11.708 14.729 15.82 21.402 2.173 3.267 3.866 6.504 5.55 9.407 1.63 2.934 2.928 5.716 4.193 8.166 2.293 5.014 4.06 8.916 5.02 11.658l1.148 3.094c.252.7.369 1.062.35 1.07-.023.009-.184-.338-.48-1.02-.285-.686-.711-1.706-1.27-3.042-1.04-2.706-2.88-6.566-5.239-11.53-1.299-2.425-2.627-5.182-4.283-8.086-1.713-2.874-3.43-6.079-5.624-9.313-4.154-6.608-9.459-13.776-15.905-21.183a180.626 180.626 0 0 0-23.133-22.229 179.982 179.982 0 0 0-30.91-19.963c-11.57-5.864-24.331-10.898-38.066-14.228-13.717-3.363-28.321-5.227-43.304-5.289-14.984.062-29.586 1.926-43.303 5.29-13.735 3.33-26.497 8.363-38.066 14.227a179.982 179.982 0 0 0-30.91 19.963 180.626 180.626 0 0 0-23.133 22.229c-6.447 7.407-11.752 14.575-15.906 21.183-2.193 3.234-3.912 6.44-5.624 9.313-1.657 2.904-2.984 5.661-4.284 8.085-2.357 4.965-4.2 8.825-5.237 11.531l-1.273 3.042c-.294.682-.455 1.029-.478 1.02"/>
            <path d="M134.062 233.718c-.019-.01.097-.365.345-1.05.25-.683.602-1.71 1.19-3.003 1.155-2.594 2.722-6.486 5.237-11.268.62-1.199 1.219-2.493 1.953-3.801.738-1.304 1.515-2.67 2.325-4.098 1.557-2.898 3.554-5.862 5.594-9.113 4.292-6.352 9.411-13.468 15.894-20.649a183.039 183.039 0 0 1 23.044-21.603 180.607 180.607 0 0 1 30.616-19.423c22.794-11.604 50.757-18.857 80.333-18.94 29.576.083 57.54 7.336 80.332 18.94a180.487 180.487 0 0 1 30.616 19.423 183.057 183.057 0 0 1 23.046 21.603c6.482 7.18 11.6 14.297 15.895 20.65 2.039 3.25 4.034 6.214 5.592 9.112l2.326 4.098c.734 1.308 1.333 2.602 1.953 3.8 2.515 4.783 4.08 8.675 5.236 11.269.589 1.293.942 2.32 1.19 3.003.247.685.363 1.04.345 1.05-.024.007-.182-.33-.469-1-.29-.665-.683-1.673-1.309-2.947-1.232-2.556-2.872-6.406-5.448-11.139-.636-1.185-1.25-2.469-1.998-3.76-.754-1.29-1.543-2.645-2.367-4.06-1.586-2.867-3.606-5.8-5.666-9.019-4.333-6.288-9.48-13.33-15.973-20.434-6.47-7.112-14.108-14.418-23.027-21.365a180.488 180.488 0 0 0-30.484-19.198c-22.667-11.466-50.428-18.626-79.79-18.708-29.363.082-57.122 7.242-79.791 18.708a180.473 180.473 0 0 0-30.483 19.198c-8.92 6.947-16.557 14.253-23.026 21.365-6.493 7.104-11.64 14.146-15.975 20.434-2.06 3.22-4.08 6.152-5.662 9.02l-2.37 4.059c-.747 1.291-1.362 2.575-1.998 3.76-2.576 4.733-4.215 8.583-5.448 11.14-.626 1.273-1.019 2.28-1.309 2.947-.288.669-.444 1.006-.469.999"/>
            <path d="M135.823 229.482c-.019-.01.112-.35.385-1.007l1.246-2.907c1.04-2.58 2.938-6.219 5.343-10.921 1.315-2.29 2.717-4.872 4.369-7.63l2.693-4.247 1.429-2.253c.52-.741 1.046-1.497 1.584-2.267l3.358-4.76c1.23-1.585 2.5-3.218 3.806-4.898.663-.833 1.3-1.707 2.013-2.54l2.172-2.521c1.482-1.69 2.928-3.495 4.594-5.177 12.752-13.923 30.532-28.41 53.048-39.448 22.448-11.045 49.786-18.063 78.73-18.12 28.944.057 56.283 7.075 78.73 18.12 22.517 11.038 40.296 25.525 53.05 39.448 1.664 1.682 3.109 3.486 4.593 5.177.733.852 1.456 1.693 2.171 2.521.713.833 1.348 1.707 2.013 2.54l3.806 4.897 3.357 4.761 1.585 2.267c.485.766.962 1.516 1.43 2.253l2.692 4.246c1.652 2.759 3.054 5.342 4.37 7.63 2.404 4.703 4.3 8.342 5.344 10.922.546 1.278.962 2.252 1.244 2.907.273.657.402.998.385 1.007-.023.009-.193-.315-.505-.954-.308-.642-.763-1.598-1.36-2.85-1.119-2.541-3.084-6.137-5.549-10.79-1.345-2.265-2.776-4.82-4.452-7.55-.873-1.343-1.782-2.746-2.73-4.202-.471-.73-.955-1.473-1.445-2.23-.523-.736-1.057-1.483-1.6-2.243-1.09-1.52-2.22-3.09-3.385-4.712l-3.828-4.848c-.665-.823-1.304-1.689-2.022-2.51-.716-.823-1.443-1.654-2.178-2.498-1.488-1.671-2.937-3.458-4.605-5.12-12.774-13.774-30.505-28.095-52.899-39.003-22.33-10.91-49.472-17.84-78.212-17.898-28.741.057-55.882 6.987-78.21 17.898-22.396 10.908-40.127 25.229-52.901 39.003-1.668 1.662-3.117 3.449-4.603 5.12-.739.844-1.464 1.675-2.182 2.497-.714.822-1.354 1.688-2.02 2.511l-3.828 4.848-3.384 4.712c-.544.76-1.078 1.507-1.6 2.242-.493.758-.975 1.5-1.446 2.23-.948 1.457-1.859 2.86-2.731 4.204-1.675 2.73-3.106 5.284-4.451 7.55-2.465 4.652-4.432 8.248-5.549 10.789l-1.358 2.85c-.314.639-.484.963-.507.954"/>
            <path d="M137.714 225.302c-.017-.01.11-.344.378-.987.258-.648.674-1.598 1.292-2.808 1.227-2.424 2.905-6.074 5.53-10.526.64-1.122 1.295-2.319 2.028-3.552.765-1.212 1.57-2.482 2.41-3.811.86-1.314 1.679-2.74 2.677-4.125l3.06-4.344c1.03-1.523 2.202-3.017 3.417-4.559 1.219-1.536 2.418-3.166 3.762-4.758l4.191-4.869c1.416-1.684 3.039-3.258 4.61-4.956 12.763-13.323 30.236-27.367 52.418-37.858a179.023 179.023 0 0 1 36.209-12.623c12.977-3.02 26.761-4.689 40.897-4.726 14.135.037 27.921 1.707 40.897 4.726a179.023 179.023 0 0 1 36.208 12.623c22.183 10.49 39.657 24.535 52.42 37.858 1.571 1.698 3.192 3.272 4.61 4.956l4.191 4.87c1.342 1.59 2.543 3.221 3.764 4.757 1.211 1.542 2.384 3.036 3.414 4.559l3.06 4.344c.997 1.384 1.816 2.81 2.676 4.125l2.412 3.811c.731 1.233 1.387 2.43 2.027 3.552 2.624 4.452 4.304 8.102 5.53 10.526.62 1.21 1.033 2.16 1.292 2.808.268.643.395.978.377.987-.02.009-.188-.308-.494-.932a47.7 47.7 0 0 0-1.403-2.75c-1.298-2.384-3.044-5.99-5.725-10.393l-2.07-3.514-2.452-3.768c-.872-1.302-1.701-2.714-2.71-4.083-.992-1.38-2.024-2.814-3.09-4.3-1.04-1.505-2.22-2.983-3.442-4.508-1.226-1.52-2.433-3.135-3.783-4.709-1.365-1.561-2.765-3.168-4.206-4.816-1.42-1.667-3.046-3.224-4.618-4.904-12.785-13.177-30.213-27.063-52.278-37.428a178.903 178.903 0 0 0-35.99-12.468c-12.89-2.983-26.578-4.63-40.617-4.67-14.038.04-27.728 1.687-40.618 4.67a178.936 178.936 0 0 0-35.99 12.468c-22.063 10.365-39.493 24.25-52.276 37.428-1.572 1.68-3.197 3.237-4.62 4.904-1.44 1.648-2.841 3.255-4.204 4.816-1.351 1.574-2.557 3.19-3.785 4.709-1.22 1.525-2.4 3.003-3.44 4.509l-3.09 4.299c-1.01 1.37-1.84 2.78-2.711 4.083-.855 1.314-1.671 2.57-2.452 3.768l-2.069 3.514c-2.682 4.403-4.428 8.009-5.725 10.392a46.96 46.96 0 0 0-1.404 2.751c-.306.624-.472.94-.495.932"/>
            <path d="M139.7 221.167c-.018-.01.123-.33.414-.944l1.324-2.718a59.987 59.987 0 0 1 2.294-4.346c.96-1.689 2.036-3.658 3.316-5.835 5.156-8.668 13.608-20.733 26.274-33.663 12.775-12.736 30.03-26.187 51.803-36.238a178.835 178.835 0 0 1 35.478-12.092c12.697-2.892 26.173-4.486 39.99-4.518 13.817.032 27.293 1.626 39.99 4.518a178.787 178.787 0 0 1 35.476 12.092c21.773 10.051 39.028 23.502 51.807 36.238 12.666 12.93 21.116 24.995 26.272 33.663 1.28 2.177 2.356 4.146 3.316 5.835a59.987 59.987 0 0 1 2.294 4.346c.58 1.194 1.025 2.104 1.322 2.718.293.615.433.934.416.944-.02.008-.198-.292-.528-.887l-1.431-2.66a68.275 68.275 0 0 0-2.393-4.282c-.99-1.667-2.097-3.612-3.405-5.763-5.268-8.57-13.798-20.51-26.48-33.299-12.795-12.595-30.006-25.893-51.666-35.824a178.729 178.729 0 0 0-35.267-11.943c-12.615-2.858-25.999-4.434-39.723-4.464-13.726.03-27.107 1.606-39.721 4.464a178.71 178.71 0 0 0-35.27 11.943c-21.66 9.931-38.87 23.229-51.665 35.824-12.684 12.79-21.212 24.73-26.48 33.299-1.308 2.15-2.413 4.096-3.407 5.763a68.934 68.934 0 0 0-2.391 4.282c-.629 1.169-1.11 2.06-1.43 2.66-.331.595-.508.895-.53.887"/>
            <path d="M141.793 217.083c-.017-.009.12-.322.406-.924.27-.609.744-1.477 1.378-2.608 1.282-2.258 3.054-5.66 5.76-9.786l2.089-3.302c.785-1.122 1.609-2.296 2.472-3.526l2.713-3.834c1.001-1.286 2.042-2.62 3.118-4.004 2.093-2.817 4.63-5.583 7.201-8.617 1.318-1.49 2.761-2.942 4.195-4.476.723-.764 1.455-1.535 2.196-2.316l2.362-2.265c1.614-1.506 3.18-3.143 4.94-4.641l5.346-4.652c1.893-1.495 3.822-3.02 5.788-4.575 1.959-1.564 4.095-2.97 6.192-4.503a179.99 179.99 0 0 1 28.817-16.357 178.787 178.787 0 0 1 34.744-11.56 181.81 181.81 0 0 1 39.082-4.309c13.5.023 26.664 1.545 39.084 4.308a178.82 178.82 0 0 1 34.745 11.56 179.842 179.842 0 0 1 28.815 16.358c2.098 1.533 4.235 2.939 6.192 4.503l5.79 4.575 5.344 4.652c1.759 1.498 3.326 3.135 4.94 4.64.799.764 1.585 1.519 2.363 2.266.742.781 1.473 1.552 2.196 2.316 1.434 1.534 2.877 2.986 4.195 4.476 2.57 3.034 5.109 5.8 7.201 8.617l3.118 4.004 2.713 3.834 2.474 3.526c.731 1.158 1.426 2.26 2.086 3.302 2.706 4.126 4.48 7.528 5.76 9.786.635 1.13 1.108 2 1.38 2.608.285.602.421.915.405.924-.02.01-.194-.283-.514-.865-.306-.591-.815-1.439-1.483-2.55-1.348-2.216-3.182-5.573-5.942-9.65l-2.126-3.264-2.507-3.484-2.745-3.792-3.146-3.96c-2.109-2.787-4.662-5.522-7.243-8.525-1.324-1.471-2.771-2.908-4.208-4.425-.725-.754-1.46-1.518-2.2-2.292-.78-.738-1.57-1.483-2.367-2.24-1.617-1.487-3.184-3.107-4.945-4.59l-5.343-4.598c-1.888-1.48-3.816-2.987-5.778-4.523-1.956-1.548-4.088-2.935-6.178-4.452a180.588 180.588 0 0 0-28.704-16.165c-21.155-9.54-46.517-15.674-73.372-15.677-26.852.003-52.214 6.137-73.372 15.677a180.488 180.488 0 0 0-28.7 16.165c-2.092 1.517-4.223 2.904-6.18 4.452l-5.78 4.523-5.34 4.599c-1.762 1.482-3.329 3.102-4.946 4.59-.797.756-1.587 1.501-2.364 2.24-.745.773-1.478 1.537-2.203 2.291-1.436 1.517-2.884 2.954-4.208 4.425-2.582 3.003-5.134 5.738-7.243 8.525-1.087 1.368-2.135 2.69-3.145 3.96-.954 1.315-1.868 2.578-2.746 3.792l-2.507 3.484-2.126 3.264c-2.76 4.077-4.594 7.434-5.942 9.65-.668 1.111-1.177 1.959-1.482 2.55-.32.582-.495.874-.515.865"/>
            <path d="M143.998 213.06c-.016-.01.133-.308.439-.88l1.387-2.528c.31-.554.653-1.173 1.034-1.856l1.36-2.175 3.42-5.41c1.386-1.971 2.923-4.164 4.608-6.563 1.779-2.33 3.73-4.85 5.865-7.525l3.462-4.028c.597-.693 1.202-1.398 1.816-2.113.649-.684 1.306-1.38 1.974-2.085l4.127-4.341 4.555-4.368c6.317-5.864 13.624-11.894 22.013-17.609a180.683 180.683 0 0 1 28.347-15.609c20.856-9.214 45.797-15.14 72.188-15.129 26.392-.012 51.331 5.915 72.19 15.13a180.734 180.734 0 0 1 28.344 15.608c8.39 5.715 15.696 11.745 22.013 17.609 1.557 1.492 3.075 2.949 4.557 4.368l4.126 4.34 1.973 2.086 1.817 2.113 3.463 4.028a434.099 434.099 0 0 1 5.864 7.525c1.684 2.399 3.222 4.592 4.607 6.563l3.422 5.41c.49.786.944 1.51 1.358 2.175l1.035 1.856c.61 1.111 1.074 1.959 1.387 2.527.306.573.456.872.44.881-.02.01-.203-.269-.544-.82l-1.486-2.467-1.084-1.825-1.404-2.14c-1.013-1.549-2.186-3.332-3.504-5.34-1.405-1.95-2.966-4.115-4.678-6.485a476.49 476.49 0 0 0-5.919-7.44l-3.484-3.983-1.826-2.09-1.983-2.062c-1.34-1.392-2.722-2.823-4.139-4.293-1.483-1.404-3.004-2.844-4.564-4.318-6.324-5.8-13.624-11.76-21.991-17.41a181.294 181.294 0 0 0-28.237-15.425c-20.755-9.104-45.53-14.957-71.753-14.945-26.222-.012-50.998 5.841-71.753 14.945a181.363 181.363 0 0 0-28.237 15.426c-8.367 5.649-15.666 11.61-21.99 17.409-1.56 1.474-3.082 2.914-4.564 4.318-1.419 1.47-2.8 2.901-4.14 4.293-.67.698-1.33 1.385-1.982 2.061l-1.826 2.091-3.484 3.983a477.038 477.038 0 0 0-5.921 7.44l-4.678 6.484-3.504 5.34-1.404 2.14c-.397.673-.76 1.282-1.082 1.826-.653 1.083-1.151 1.911-1.488 2.466-.339.552-.522.831-.542.821"/>
            <path d="M146.287 209.084c-.017-.01.129-.302.428-.861.285-.569.807-1.353 1.45-2.41 1.323-2.089 3.168-5.243 5.933-9.047 5.397-7.673 13.862-18.46 26.345-29.774 12.504-11.212 29.069-22.995 49.6-31.747 20.451-8.772 44.797-14.415 70.55-14.388 25.752-.027 50.098 5.616 70.55 14.388 20.53 8.752 37.095 20.535 49.599 31.747 12.484 11.315 20.948 22.101 26.345 29.774 2.766 3.804 4.61 6.958 5.933 9.046.643 1.058 1.167 1.842 1.45 2.41.3.56.445.851.428.862-.016.01-.196-.261-.528-.801-.317-.548-.87-1.313-1.547-2.348-1.382-2.046-3.284-5.157-6.1-8.911a184.954 184.954 0 0 0-26.523-29.429c-12.517-11.083-29.04-22.73-49.47-31.378-20.358-8.666-44.546-14.24-70.137-14.214-25.592-.026-49.78 5.548-70.136 14.214-20.432 8.647-36.954 20.295-49.472 31.378-12.496 11.187-21.028 21.855-26.524 29.429-2.815 3.754-4.715 6.865-6.1 8.911-.672 1.035-1.229 1.8-1.544 2.348-.333.54-.512.811-.53.801"/>
            <path d="M148.705 205.185c-.016-.01.14-.287.457-.818.325-.526.805-1.31 1.436-2.338.32-.512.68-1.083 1.076-1.713l1.393-2.004 3.492-4.992c5.47-7.337 13.917-17.702 26.35-28.448 3.038-2.764 6.478-5.352 9.983-8.142 3.647-2.602 7.4-5.373 11.513-7.908a181.076 181.076 0 0 1 27.3-14.245c20.01-8.408 43.778-13.743 68.888-13.706 25.109-.037 48.876 5.298 68.888 13.706a181.22 181.22 0 0 1 27.3 14.245c4.113 2.535 7.865 5.306 11.513 7.908 3.506 2.79 6.945 5.378 9.982 8.142 12.435 10.746 20.884 21.111 26.35 28.448l3.493 4.992 1.393 2.004 1.077 1.713 1.435 2.338c.318.531.473.807.459.818-.02.01-.205-.246-.557-.756-.342-.513-.854-1.275-1.525-2.277-.335-.501-.709-1.06-1.12-1.68-.437-.6-.917-1.257-1.435-1.97a6840.028 6840.028 0 0 1-3.568-4.921c-5.561-7.24-14.073-17.489-26.52-28.113-3.04-2.732-6.48-5.288-9.982-8.046-3.642-2.573-7.389-5.312-11.49-7.815a181.947 181.947 0 0 0-27.2-14.078c-19.918-8.308-43.536-13.576-68.493-13.54-24.955-.036-48.576 5.232-68.493 13.54a181.782 181.782 0 0 0-27.198 14.078c-4.104 2.503-7.85 5.242-11.493 7.815-3.503 2.758-6.94 5.314-9.98 8.046-12.447 10.624-20.958 20.872-26.52 28.113l-3.569 4.921c-.52.713-.996 1.37-1.435 1.97l-1.12 1.68c-.67 1.002-1.183 1.764-1.527 2.277-.35.51-.535.766-.553.756"/>
            <path d="M151.182 201.323c-.015-.01.137-.28.448-.798.337-.498.842-1.238 1.504-2.21 1.35-1.924 3.25-4.833 6.047-8.319 5.45-7.062 13.973-16.9 26.194-27.246 6.176-5.077 13.178-10.38 21.202-15.304 8.033-4.9 16.988-9.543 26.801-13.514 19.586-7.978 42.744-13.081 67.214-13.047 24.474-.034 47.632 5.069 67.216 13.047 9.813 3.97 18.77 8.613 26.8 13.514 8.026 4.924 15.027 10.227 21.202 15.304 12.222 10.346 20.744 20.184 26.195 27.246 2.797 3.486 4.698 6.395 6.047 8.32l1.504 2.209c.311.517.463.787.448.798-.017.01-.2-.239-.54-.735l-1.592-2.147c-1.407-1.882-3.358-4.744-6.202-8.182-5.54-6.966-14.122-16.692-26.354-26.916-6.18-5.02-13.175-10.26-21.181-15.128-8.012-4.842-16.934-9.429-26.703-13.351-19.495-7.883-42.512-12.923-66.84-12.89-24.326-.033-47.343 5.007-66.838 12.89-9.769 3.922-18.69 8.51-26.703 13.351-8.006 4.868-15 10.109-21.183 15.128-12.23 10.224-20.813 19.95-26.352 26.916-2.844 3.438-4.797 6.3-6.202 8.182l-1.593 2.147c-.34.496-.52.745-.539.735"/>
            <path d="M153.807 197.56c-.016-.012.145-.267.47-.756l1.467-2.152c1.275-1.905 3.417-4.52 6.058-7.979 1.416-1.656 2.986-3.493 4.706-5.508 1.713-2.02 3.766-4.044 5.866-6.313 2.13-2.244 4.588-4.463 7.096-6.914l4.073-3.564c1.393-1.22 2.816-2.482 4.367-3.661 12.097-9.768 27.89-19.952 47.14-27.425 19.16-7.555 41.708-12.406 65.542-12.39 23.834-.016 46.384 4.835 65.545 12.39 19.249 7.473 35.04 17.657 47.139 27.425 1.55 1.179 2.972 2.442 4.368 3.661l4.072 3.564c2.508 2.451 4.967 4.67 7.096 6.914 2.1 2.27 4.153 4.293 5.866 6.313 1.719 2.015 3.292 3.852 4.706 5.508 2.64 3.46 4.783 6.074 6.058 7.979.644.946 1.138 1.668 1.466 2.152.326.49.487.744.473.755-.016.01-.205-.224-.56-.692-.351-.47-.869-1.17-1.552-2.09-1.327-1.86-3.522-4.43-6.205-7.843l-4.765-5.431c-1.73-1.997-3.796-3.993-5.912-6.234-2.14-2.217-4.61-4.409-7.128-6.833-1.322-1.14-2.684-2.314-4.08-3.52-1.398-1.205-2.82-2.453-4.375-3.618-12.109-9.653-27.861-19.716-47.026-27.1-19.073-7.463-41.489-12.254-65.186-12.238-23.694-.016-46.109 4.775-65.185 12.239-19.164 7.383-34.916 17.446-47.027 27.099-1.552 1.165-2.975 2.413-4.373 3.618-1.396 1.206-2.76 2.38-4.082 3.52-2.516 2.424-4.986 4.616-7.128 6.833-2.114 2.24-4.18 4.237-5.91 6.234l-4.765 5.431c-2.683 3.413-4.878 5.982-6.205 7.844-.681.92-1.202 1.618-1.55 2.09-.355.467-.544.701-.56.691"/>
            <path d="M156.467 193.82s.132-.267.476-.721c.345-.456.857-1.134 1.527-2.024 1.363-1.763 3.3-4.427 6.106-7.6 5.473-6.448 13.937-15.424 25.898-24.763l2.257-1.783c.775-.584 1.584-1.14 2.387-1.722 1.616-1.15 3.267-2.328 4.953-3.531 3.493-2.218 7.048-4.656 10.96-6.807 7.717-4.46 16.288-8.715 25.691-12.225 18.735-7.133 40.677-11.729 63.871-11.73 23.194.002 45.137 4.598 63.872 11.73 9.4 3.51 17.971 7.765 25.69 12.225 3.912 2.151 7.467 4.588 10.96 6.807a6900.81 6900.81 0 0 0 4.953 3.531c.803.582 1.612 1.139 2.387 1.722l2.256 1.783c11.962 9.34 20.426 18.315 25.898 24.762 2.807 3.174 4.744 5.838 6.107 7.601l1.525 2.023c.346.455.478.723.478.723-.018.013-.19-.225-.562-.658-.362-.442-.9-1.1-1.608-1.96-1.414-1.72-3.395-4.338-6.243-7.466-5.555-6.352-14.071-15.22-26.04-24.447-.746-.58-1.5-1.168-2.26-1.762-.776-.578-1.584-1.127-2.389-1.701-1.614-1.137-3.263-2.301-4.948-3.49-3.49-2.191-7.04-4.601-10.942-6.725-7.699-4.406-16.238-8.61-25.601-12.078-18.655-7.046-40.47-11.585-63.533-11.588-23.062.003-44.88 4.542-63.533 11.588-9.362 3.468-17.902 7.672-25.6 12.078-3.904 2.124-7.453 4.534-10.943 6.726a6481.507 6481.507 0 0 1-4.948 3.489c-.805.574-1.613 1.123-2.389 1.7-.76.595-1.514 1.183-2.258 1.763-11.969 9.227-20.487 18.095-26.042 24.447-2.846 3.128-4.83 5.747-6.245 7.466l-1.606 1.96c-.373.434-.544.67-.562.658"/>
            <path d="M159.289 190.202c-.013-.01.15-.245.48-.692l1.486-1.97c1.312-1.726 3.442-4.114 6.098-7.26 5.529-6.092 13.92-14.654 25.688-23.563l4.605-3.292 2.383-1.7 2.513-1.617c1.696-1.081 3.403-2.224 5.191-3.313l5.535-3.197c7.594-4.185 15.977-8.199 25.125-11.6 18.31-6.709 39.645-11.05 62.2-11.07 22.555.02 43.89 4.361 62.2 11.07 9.15 3.401 17.531 7.415 25.126 11.6l5.533 3.197c1.788 1.089 3.495 2.232 5.193 3.313l2.512 1.617 2.382 1.7 4.606 3.292c11.768 8.909 20.159 17.47 25.688 23.562 2.657 3.147 4.788 5.535 6.098 7.262.653.865 1.152 1.525 1.486 1.97.33.446.493.68.48.691-.014.01-.203-.203-.56-.629l-1.562-1.903c-1.36-1.685-3.537-4.028-6.232-7.128-5.607-5.999-14.047-14.456-25.824-23.256l-4.606-3.252c-.785-.552-1.58-1.113-2.381-1.679l-2.512-1.599c-1.696-1.066-3.398-2.196-5.183-3.273l-5.525-3.156c-7.574-4.134-15.928-8.1-25.04-11.46-18.232-6.625-39.448-10.914-61.88-10.935-22.43.021-43.646 4.31-61.879 10.935-9.111 3.36-17.464 7.326-25.04 11.46l-5.524 3.156c-1.783 1.077-3.487 2.207-5.184 3.273-.846.54-1.683 1.071-2.511 1.6-.802.565-1.596 1.126-2.381 1.678l-4.606 3.252c-11.777 8.8-20.217 17.257-25.825 23.256-2.694 3.1-4.87 5.443-6.231 7.128l-1.562 1.903c-.355.426-.546.64-.56.63"/>
            <path d="M162.132 186.6c-.012-.01.156-.23.497-.648.345-.416.859-1.034 1.533-1.842 1.365-1.605 3.318-4.028 6.109-6.897 5.449-5.847 13.791-13.988 25.428-22.371l4.48-3.19 4.832-3.115c.824-.523 1.645-1.074 2.498-1.593.863-.5 1.735-1.002 2.617-1.51 1.767-1.002 3.535-2.087 5.397-3.072 7.425-3.995 15.66-7.694 24.568-10.94 17.833-6.421 38.597-10.411 60.501-10.48 21.906.069 42.67 4.059 60.504 10.48 8.908 3.246 17.142 6.945 24.566 10.94 1.864.985 3.63 2.07 5.4 3.072.88.508 1.752 1.01 2.615 1.51.853.52 1.674 1.07 2.498 1.593l4.831 3.114 4.483 3.19c11.636 8.384 19.977 16.525 25.427 22.372 2.79 2.87 4.743 5.292 6.108 6.897.674.808 1.188 1.426 1.533 1.842.34.418.51.637.498.648-.015.01-.21-.188-.575-.585l-1.605-1.778c-1.412-1.561-3.407-3.939-6.236-6.763a178.64 178.64 0 0 0-25.555-22.071l-4.48-3.152-4.83-3.075c-.824-.519-1.644-1.063-2.495-1.575l-2.612-1.492c-1.765-.989-3.53-2.061-5.386-3.035-7.41-3.945-15.616-7.599-24.487-10.804-17.761-6.344-38.413-10.283-60.202-10.353-21.787.07-42.438 4.01-60.198 10.353-8.873 3.205-17.08 6.86-24.489 10.804-1.857.974-3.62 2.046-5.386 3.035l-2.612 1.492c-.85.512-1.671 1.056-2.495 1.575l-4.828 3.075-4.482 3.152a178.837 178.837 0 0 0-25.557 22.07c-2.827 2.825-4.822 5.203-6.234 6.764l-1.605 1.778c-.365.397-.56.595-.574.585"/>
            <path d="M165.138 183.132c-.01-.01.153-.224.483-.63l1.49-1.79c1.335-1.548 3.436-3.715 6.085-6.56 5.487-5.49 13.743-13.214 25.16-21.185 1.394-1.041 2.902-1.99 4.433-2.975 1.533-.984 3.1-1.987 4.697-3.013l5.031-2.907c.859-.486 1.71-1.005 2.596-1.48l2.705-1.393c7.218-3.858 15.289-7.297 23.973-10.338 2.19-.71 4.366-1.555 6.639-2.18l6.879-1.957c4.688-1.114 9.47-2.283 14.42-3.072a186.59 186.59 0 0 1 30.865-2.697c10.628.044 20.992.996 30.862 2.697 4.951.79 9.736 1.958 14.423 3.072l6.877 1.958c2.274.624 4.45 1.47 6.638 2.18 8.685 3.04 16.756 6.48 23.974 10.337l2.705 1.394c.886.474 1.737.993 2.596 1.479 1.708.988 3.387 1.957 5.032 2.907 1.597 1.026 3.163 2.03 4.696 3.013 1.531.984 3.038 1.934 4.435 2.975 11.418 7.97 19.672 15.696 25.157 21.186 2.652 2.844 4.75 5.011 6.088 6.56l1.488 1.789c.33.406.495.62.482.63-.012.01-.2-.182-.556-.566-.35-.39-.872-.967-1.557-1.726-1.38-1.505-3.522-3.63-6.207-6.426-5.555-5.402-13.852-13.026-25.278-20.897-1.395-1.027-2.902-1.965-4.435-2.937l-4.693-2.976c-1.644-.937-3.318-1.894-5.026-2.87-.856-.48-1.705-.994-2.59-1.462l-2.699-1.374c-7.203-3.813-15.248-7.209-23.897-10.21-2.18-.702-4.346-1.538-6.611-2.153-2.257-.639-4.54-1.282-6.847-1.935-4.666-1.098-9.427-2.254-14.352-3.031a186.872 186.872 0 0 0-30.705-2.666 186.905 186.905 0 0 0-30.707 2.666c-4.925.777-9.686 1.933-14.352 3.031-2.307.653-4.59 1.296-6.847 1.935-2.264.615-4.432 1.45-6.611 2.153-8.65 3.001-16.693 6.397-23.896 10.21l-2.7 1.374c-.885.468-1.735.981-2.59 1.463l-5.025 2.87c-1.599 1.012-3.163 2.005-4.694 2.975-1.533.972-3.039 1.91-4.435 2.937-11.423 7.87-19.723 15.495-25.278 20.897-2.686 2.796-4.826 4.921-6.208 6.426l-1.556 1.726c-.355.384-.544.576-.557.566"/>
            <path d="M168.17 179.688c-.011-.01.157-.21.496-.588.346-.375.854-.933 1.526-1.664 1.354-1.45 3.305-3.637 6.06-6.213a169.129 169.129 0 0 1 24.792-20.083c2.858-1.794 5.752-3.836 8.985-5.609 1.595-.92 3.223-1.86 4.883-2.815l5.202-2.678c.883-.448 1.767-.92 2.675-1.362l2.778-1.263c1.875-.83 3.751-1.744 5.707-2.547l5.984-2.368c2.006-.843 4.132-1.448 6.235-2.198 16.89-5.794 36.482-9.219 57.1-9.331 20.62.112 40.21 3.537 57.1 9.331 2.103.75 4.229 1.355 6.234 2.198l5.984 2.368c1.958.803 3.833 1.716 5.708 2.547l2.779 1.263c.908.441 1.791.914 2.674 1.362l5.203 2.678c1.659.955 3.288 1.894 4.882 2.815 3.232 1.773 6.128 3.815 8.985 5.609a169.129 169.129 0 0 1 24.792 20.083c2.756 2.576 4.708 4.763 6.06 6.213.671.73 1.182 1.289 1.525 1.664.34.378.508.577.496.588-.012.01-.203-.167-.565-.524l-1.59-1.602c-1.396-1.405-3.385-3.549-6.174-6.08-5.448-5.174-13.652-12.418-24.906-19.8-2.857-1.77-5.753-3.788-8.98-5.539l-4.878-2.78-5.191-2.644c-.883-.442-1.764-.909-2.67-1.344l-2.77-1.246c-1.871-.82-3.74-1.724-5.69-2.516-1.961-.77-3.95-1.55-5.965-2.338-2-.836-4.118-1.431-6.212-2.172-16.826-5.723-36.315-9.102-56.831-9.213-20.516.11-40.005 3.49-56.831 9.213-2.095.74-4.211 1.336-6.211 2.172-2.016.789-4.004 1.569-5.964 2.338-1.952.792-3.821 1.695-5.69 2.516l-2.773 1.246c-.905.435-1.786.902-2.67 1.344-1.76.897-3.491 1.78-5.192 2.643-1.654.945-3.28 1.872-4.876 2.781-3.228 1.75-6.124 3.768-8.98 5.538-11.254 7.383-19.458 14.627-24.906 19.8-2.788 2.532-4.779 4.676-6.173 6.081-.7.705-1.233 1.24-1.59 1.602-.363.357-.554.534-.567.524"/>
            <path d="M171.338 176.368c-.01-.01.154-.204.482-.57l1.48-1.614c1.346-1.373 3.397-3.33 6.02-5.877 5.403-4.907 13.455-11.834 24.467-18.912 5.451-3.621 11.756-7.05 18.622-10.517l5.338-2.436 2.737-1.242 2.836-1.126c1.91-.744 3.83-1.54 5.805-2.274 1.997-.68 4.02-1.365 6.068-2.061 2.034-.744 4.164-1.27 6.29-1.895 2.132-.603 4.276-1.26 6.495-1.725 2.208-.502 4.433-1.044 6.692-1.531l6.89-1.233a193.359 193.359 0 0 1 29.033-2.372c9.993.06 19.73.899 29.033 2.372l6.89 1.233c2.259.487 4.485 1.029 6.692 1.531 2.219.465 4.364 1.122 6.497 1.725 2.125.626 4.255 1.15 6.287 1.895 2.048.696 4.072 1.381 6.069 2.06 1.974.736 3.897 1.53 5.805 2.275.953.38 1.899.754 2.837 1.126l2.735 1.242c1.81.827 3.59 1.638 5.34 2.436 6.864 3.467 13.17 6.896 18.62 10.517 11.012 7.078 19.066 14.005 24.468 18.912 2.622 2.547 4.675 4.504 6.021 5.877.649.71 1.146 1.25 1.479 1.614.329.366.492.56.48.57-.01.01-.196-.162-.546-.507l-1.54-1.551-6.129-5.747c-5.464-4.82-13.557-11.653-24.573-18.637-5.451-3.575-11.752-6.959-18.602-10.383l-5.325-2.403c-.904-.405-1.814-.815-2.73-1.227l-2.828-1.112c-1.903-.736-3.82-1.52-5.789-2.247l-6.044-2.034c-2.026-.735-4.15-1.25-6.264-1.87-2.125-.596-4.26-1.245-6.468-1.703-2.2-.496-4.415-1.032-6.664-1.513l-6.858-1.218a194.152 194.152 0 0 0-28.893-2.342c-9.942.06-19.633.888-28.893 2.342l-6.859 1.218c-2.249.481-4.463 1.017-6.662 1.513-2.21.458-4.345 1.107-6.47 1.703-2.114.62-4.237 1.135-6.262 1.87l-6.046 2.034c-1.97.726-3.885 1.51-5.789 2.247-.948.374-1.89.744-2.827 1.112l-2.729 1.227-5.326 2.403c-6.85 3.424-13.148 6.808-18.6 10.383-11.018 6.984-19.112 13.818-24.575 18.637a9175.903 9175.903 0 0 0-6.128 5.747l-1.541 1.55c-.35.346-.535.518-.548.508"/>
            <path d="M174.55 173.091c-.01-.01.157-.19.492-.53.34-.336.844-.835 1.503-1.49 1.333-1.303 3.265-3.259 5.961-5.55 5.25-4.735 13.267-11.182 24.026-17.872 10.728-6.718 24.408-13.34 40.361-18.47 8.021-2.416 16.573-4.544 25.583-5.974a198.24 198.24 0 0 1 28.117-2.208c9.672.068 19.1.85 28.118 2.208 9.01 1.43 17.56 3.558 25.581 5.973 15.954 5.132 29.635 11.753 40.361 18.471 10.76 6.69 18.777 13.137 24.026 17.873 2.698 2.29 4.63 4.246 5.962 5.548.659.656 1.163 1.155 1.503 1.491.334.34.501.52.491.53-.011.01-.199-.149-.553-.467-.353-.32-.875-.8-1.561-1.428-1.37-1.26-3.336-3.174-6.062-5.42-5.307-4.65-13.361-11.006-24.125-17.606-10.733-6.63-24.382-13.166-40.28-18.234-7.991-2.38-16.505-4.484-25.473-5.897a199.42 199.42 0 0 0-27.988-2.178c-9.628.068-19.009.839-27.986 2.178-8.97 1.413-17.484 3.516-25.475 5.897-15.897 5.068-29.548 11.604-40.28 18.234-10.764 6.6-18.818 12.955-24.125 17.605-2.725 2.247-4.693 4.161-6.06 5.421-.688.627-1.21 1.107-1.563 1.428-.355.318-.542.477-.553.467"/>
            <path d="M177.874 169.925c-.01-.01.152-.184.475-.513l1.456-1.443c1.352-1.192 3.342-2.95 5.906-5.214 5.274-4.344 13.075-10.513 23.62-16.756 10.532-6.218 23.758-12.633 39.287-17.307 7.75-2.38 16.075-4.19 24.775-5.627a202.29 202.29 0 0 1 27.2-2.053c9.355.081 18.471.789 27.2 2.053 8.699 1.437 17.026 3.246 24.774 5.627 15.53 4.674 28.757 11.09 39.287 17.307 10.549 6.243 18.346 12.412 23.622 16.756l5.904 5.214 1.456 1.443c.325.329.487.503.477.513-.011.011-.192-.142-.535-.45l-1.51-1.381-6.001-5.088c-5.33-4.262-13.163-10.341-23.714-16.499-10.534-6.132-23.734-12.465-39.206-17.079-7.723-2.349-16.014-4.135-24.676-5.553a203.043 203.043 0 0 0-27.078-2.029c-9.311.081-18.386.78-27.078 2.03-8.661 1.417-16.954 3.203-24.675 5.552-15.473 4.614-28.672 10.947-39.208 17.08-10.55 6.157-18.384 12.236-23.714 16.498l-6 5.088-1.51 1.381c-.343.308-.524.461-.534.45"/>
            <path d="M181.257 166.825c-.01-.01.155-.17.482-.47l1.47-1.327c1.298-1.158 3.194-2.89 5.812-4.91 1.297-1.024 2.72-2.188 4.316-3.41l5.318-3.82c.943-.7 1.95-1.38 3.013-2.047l3.26-2.106c2.206-1.495 4.672-2.859 7.23-4.347 10.27-5.838 23.12-11.875 38.188-16.173 7.485-2.3 15.563-3.907 23.967-5.253 8.433-1.242 17.248-1.825 26.28-1.936 9.033.11 17.848.694 26.279 1.936 8.405 1.346 16.485 2.954 23.969 5.253 15.066 4.298 27.92 10.335 38.189 16.173 2.556 1.488 5.021 2.852 7.23 4.347l3.259 2.106a45.704 45.704 0 0 1 3.014 2.048c1.907 1.37 3.683 2.644 5.316 3.819 1.596 1.222 3.018 2.386 4.316 3.41 2.618 2.02 4.514 3.752 5.813 4.91.646.582 1.137 1.026 1.468 1.326.33.302.493.46.483.471-.008.01-.191-.129-.537-.41-.344-.284-.852-.709-1.522-1.264-1.33-1.117-3.256-2.81-5.9-4.786-1.309-1.004-2.744-2.147-4.35-3.35l-5.343-3.754a46.596 46.596 0 0 0-3.024-2.018l-3.267-2.074c-2.211-1.473-4.68-2.817-7.237-4.284-10.273-5.756-23.1-11.715-38.115-15.956-7.46-2.27-15.508-3.856-23.878-5.184-8.395-1.227-17.171-1.803-26.163-1.912-8.993.11-17.77.685-26.164 1.912-8.37 1.328-16.418 2.913-23.878 5.184-15.015 4.24-27.84 10.2-38.113 15.956-2.558 1.467-5.025 2.81-7.238 4.284-1.121.712-2.21 1.404-3.268 2.074a46.969 46.969 0 0 0-3.022 2.018c-1.917 1.345-3.7 2.6-5.343 3.754-1.606 1.203-3.04 2.346-4.35 3.35-2.644 1.977-4.57 3.669-5.902 4.786l-1.522 1.265c-.345.28-.527.42-.536.41"/>
            <path d="M184.727 163.821c-.009-.01.15-.165.467-.456.321-.285.78-.735 1.43-1.264l5.73-4.592c5.107-3.805 12.6-9.255 22.63-14.725 10.005-5.48 22.543-10.96 37.086-15.045 14.51-4.196 31.092-6.573 48.523-6.7 17.43.127 34.013 2.504 48.522 6.7 14.544 4.086 27.081 9.565 37.088 15.045 10.032 5.47 17.521 10.92 22.629 14.725l5.731 4.592c.649.53 1.108.98 1.43 1.264.316.291.474.446.465.456-.007.01-.183-.124-.516-.396-.34-.264-.813-.693-1.48-1.203-1.328-1.023-3.288-2.53-5.812-4.471-5.155-3.725-12.676-9.092-22.71-14.484-10.01-5.4-22.523-10.806-37.019-14.838-14.461-4.142-30.972-6.485-48.328-6.61-17.356.125-33.868 2.468-48.33 6.61-14.495 4.032-27.008 9.438-37.017 14.838-10.033 5.392-17.554 10.76-22.71 14.484-2.523 1.94-4.484 3.448-5.812 4.471-.665.51-1.141.94-1.479 1.203-.333.272-.509.407-.518.396"/>
            <path d="M188.27 160.907c-.007-.01.152-.151.469-.417l1.425-1.165c1.255-1.02 3.097-2.54 5.617-4.298l4.153-2.99 5.1-3.316c.923-.582 1.85-1.231 2.86-1.813a20101.754 20101.754 0 0 1 6.428-3.725c1.13-.654 2.345-1.23 3.56-1.872 9.733-5.1 21.868-10.228 35.915-14.047 14.02-3.894 30.007-6.07 46.795-6.209 16.79.138 32.776 2.315 46.797 6.209 14.047 3.819 26.184 8.947 35.915 14.047 1.216.642 2.429 1.218 3.562 1.872l3.304 1.916c1.072.62 2.114 1.224 3.121 1.809 1.01.582 1.937 1.231 2.862 1.813 1.828 1.19 3.532 2.298 5.101 3.317 1.518 1.092 2.903 2.09 4.151 2.99 2.52 1.757 4.363 3.277 5.618 4.297l1.423 1.165c.318.266.477.407.47.417-.01.01-.183-.11-.518-.357l-1.47-1.107c-1.282-.98-3.151-2.46-5.694-4.179l-4.181-2.93c-1.575-1.001-3.285-2.089-5.125-3.257-.927-.573-1.856-1.212-2.868-1.785l-3.127-1.78-3.31-1.886c-1.134-.645-2.347-1.21-3.563-1.844-9.735-5.026-21.849-10.083-35.85-13.85-13.976-3.845-29.897-5.989-46.618-6.127-16.719.138-32.64 2.282-46.615 6.126-14.003 3.768-26.115 8.825-35.85 13.851-1.216.633-2.43 1.199-3.564 1.844l-3.31 1.885-3.125 1.78c-1.014.574-1.943 1.213-2.87 1.786a7172.553 7172.553 0 0 1-5.126 3.256c-1.527 1.073-2.924 2.05-4.18 2.931-2.543 1.72-4.41 3.198-5.695 4.18-.644.487-1.138.857-1.468 1.106-.335.246-.51.366-.519.357"/>
            <path d="M191.882 158.072s.591-.572 1.845-1.494l5.508-4c1.183-.89 2.601-1.724 4.098-2.722 1.522-.96 3.124-2.085 4.94-3.14l5.823-3.377c2.074-1.172 4.343-2.27 6.685-3.5a181.056 181.056 0 0 1 34.743-13.051c13.555-3.482 28.905-5.634 45.069-5.718 16.164.084 31.514 2.236 45.07 5.718a181.077 181.077 0 0 1 34.742 13.051c2.344 1.23 4.61 2.328 6.685 3.5l5.822 3.376c1.817 1.056 3.42 2.181 4.94 3.141 1.497.998 2.92 1.832 4.099 2.723 2.392 1.737 4.25 3.085 5.511 3.999 1.252.922 1.842 1.494 1.842 1.494-.007.01-.175-.107-.495-.344-.323-.232-.785-.603-1.434-1.033l-5.583-3.884c-1.192-.873-2.62-1.687-4.126-2.667-1.528-.94-3.14-2.046-4.961-3.082l-5.835-3.321c-2.078-1.152-4.35-2.232-6.69-3.446a183.666 183.666 0 0 0-34.683-12.864c-13.515-3.432-28.805-5.556-44.904-5.641-16.1.085-31.39 2.21-44.904 5.641a183.648 183.648 0 0 0-34.682 12.864c-2.342 1.214-4.613 2.294-6.69 3.446l-5.836 3.32c-1.821 1.037-3.432 2.143-4.962 3.083-1.504.98-2.933 1.794-4.125 2.667l-5.582 3.884c-.648.43-1.112.8-1.435 1.033-.32.237-.488.354-.495.344"/>
            <path d="M195.576 155.352c-.006-.01.147-.134.452-.365l1.366-1.012c1.202-.89 2.974-2.204 5.38-3.717l3.965-2.576c1.453-.933 3.106-1.83 4.842-2.859 1.744-1.015 3.601-2.118 5.655-3.13 2.045-1.028 4.158-2.213 6.467-3.275 9.153-4.405 20.503-8.814 33.567-12.025 13.049-3.23 27.795-5.243 43.323-5.31 15.527.067 30.275 2.08 43.324 5.31 13.064 3.211 24.413 7.62 33.567 12.025 2.307 1.062 4.422 2.247 6.467 3.275 2.054 1.012 3.91 2.115 5.654 3.13 1.735 1.03 3.388 1.926 4.843 2.86l3.964 2.575c2.405 1.513 4.178 2.827 5.38 3.717l1.366 1.012c.306.231.457.356.452.365-.008.009-.175-.095-.493-.308-.317-.214-.788-.535-1.405-.955-1.228-.852-3.022-2.129-5.447-3.605l-3.991-2.52c-1.461-.915-3.12-1.794-4.862-2.803-1.748-1-3.609-2.084-5.665-3.078-2.048-1.01-4.166-2.177-6.475-3.22a175.284 175.284 0 0 0-33.51-11.85c-13.01-3.184-27.7-5.17-43.17-5.237-15.468.067-30.16 2.053-43.17 5.236a175.358 175.358 0 0 0-33.508 11.85c-2.31 1.044-4.426 2.211-6.474 3.22-2.058.995-3.918 2.08-5.666 3.079-1.743 1.01-3.401 1.888-4.862 2.803l-3.99 2.52c-2.426 1.476-4.22 2.753-5.447 3.605l-1.405.955c-.32.213-.487.317-.494.308"/>
            <path d="M199.319 152.693s.567-.503 1.774-1.278l5.249-3.435c2.286-1.477 5.214-3.08 8.548-5.046 3.454-1.746 7.3-3.913 11.78-5.844a175.965 175.965 0 0 1 32.347-11.088c12.539-2.986 26.685-4.852 41.576-4.905 14.89.053 29.037 1.919 41.576 4.905a175.965 175.965 0 0 1 32.347 11.088c4.481 1.93 8.327 4.098 11.78 5.844 3.336 1.966 6.262 3.569 8.548 5.046l5.249 3.435c1.207.776 1.774 1.278 1.774 1.278l-7.158-4.493c-2.306-1.443-5.247-3.009-8.588-4.94-3.465-1.71-7.318-3.845-11.799-5.743A178.711 178.711 0 0 0 342.03 126.6c-12.505-2.945-26.6-4.785-41.436-4.838-14.837.053-28.932 1.893-41.436 4.838a178.711 178.711 0 0 0-32.293 10.918c-4.481 1.898-8.334 4.032-11.797 5.742-3.343 1.932-6.284 3.498-8.589 4.941l-7.16 4.493"/>
            <path d="M203.155 150.174c-.007-.009.14-.115.43-.313.291-.197.728-.488 1.297-.87a73.905 73.905 0 0 1 5.1-3.167c2.256-1.306 4.978-2.977 8.303-4.621 1.654-.831 3.384-1.806 5.293-2.68l6.058-2.762c8.57-3.675 19.085-7.418 31.128-10.148 12.03-2.746 25.574-4.465 39.828-4.501 14.255.036 27.8 1.755 39.83 4.501 12.043 2.73 22.558 6.473 31.128 10.148l6.056 2.761c1.911.875 3.64 1.85 5.295 2.68 3.324 1.645 6.047 3.316 8.304 4.622a74.17 74.17 0 0 1 5.098 3.167c.57.382 1.006.673 1.297.87.291.198.437.304.431.313-.006.01-.164-.08-.466-.26-.3-.182-.746-.457-1.331-.814-1.16-.729-2.866-1.816-5.155-3.063-2.273-1.272-5.007-2.908-8.341-4.518-1.66-.814-3.393-1.773-5.304-2.63l-6.06-2.714c-8.574-3.614-19.07-7.3-31.081-9.99-11.998-2.706-25.496-4.401-39.7-4.437-14.205.036-27.703 1.73-39.7 4.437-12.011 2.69-22.506 6.376-31.078 9.99-2.125.95-4.148 1.855-6.06 2.713-1.915.858-3.647 1.817-5.306 2.631-3.333 1.61-6.068 3.246-8.341 4.518-2.29 1.247-3.995 2.334-5.157 3.063l-1.33.815c-.303.18-.46.268-.466.26"/>
            <path d="M207.02 147.699c-.005-.01.135-.111.411-.302.289-.172.716-.43 1.278-.77 1.13-.664 2.798-1.645 4.947-2.906 2.14-1.278 4.895-2.59 8.025-4.247 1.563-.832 3.318-1.55 5.134-2.404 1.83-.822 3.74-1.758 5.828-2.538 8.212-3.467 18.344-6.8 29.87-9.308 11.518-2.505 24.462-4.078 38.08-4.098 13.618.02 26.561 1.593 38.082 4.098 11.523 2.508 21.655 5.841 29.869 9.308 2.088.78 3.996 1.716 5.827 2.538 1.817.855 3.572 1.572 5.136 2.404 3.127 1.656 5.882 2.969 8.024 4.247l4.946 2.907 1.277.77c.278.19.417.292.412.3l-6.75-3.772c-2.154-1.243-4.921-2.523-8.059-4.146-1.567-.817-3.327-1.518-5.146-2.358-1.833-.805-3.741-1.728-5.832-2.493-8.212-3.406-18.33-6.687-29.823-9.157-11.49-2.468-24.39-4.017-37.963-4.038-13.573.02-26.473 1.57-37.964 4.038-11.493 2.47-21.61 5.75-29.822 9.157-2.091.765-4 1.688-5.832 2.493-1.82.84-3.58 1.54-5.145 2.358-3.138 1.623-5.905 2.903-8.06 4.146l-6.75 3.773"/>
            <path d="M210.987 145.39c-.006-.01.132-.1.406-.268l1.219-.733a66.128 66.128 0 0 1 4.78-2.655l3.508-1.824c1.27-.692 2.692-1.358 4.232-2.046 1.536-.7 3.177-1.45 4.918-2.246 1.755-.765 3.653-1.471 5.62-2.27 7.915-3.077 17.571-6.24 28.587-8.515a182.169 182.169 0 0 1 36.337-3.694 182.165 182.165 0 0 1 36.334 3.694c11.016 2.276 20.672 5.438 28.587 8.516 1.97.798 3.867 1.504 5.62 2.27l4.919 2.245c1.54.688 2.963 1.354 4.232 2.046l3.508 1.824a66.228 66.228 0 0 1 4.782 2.655l1.217.733c.273.168.412.258.406.267-.005.01-.154-.064-.434-.216l-1.248-.682c-1.088-.615-2.689-1.524-4.826-2.558l-3.527-1.776c-1.276-.675-2.702-1.326-4.247-1.998l-4.927-2.202c-1.756-.75-3.654-1.443-5.624-2.226-7.914-3.022-17.554-6.133-28.546-8.373a183.757 183.757 0 0 0-36.226-3.639 183.76 183.76 0 0 0-36.228 3.64c-10.993 2.239-20.632 5.35-28.547 8.372-1.97.783-3.867 1.476-5.623 2.226l-4.926 2.202c-1.546.672-2.972 1.323-4.248 1.998l-3.527 1.776c-2.138 1.034-3.738 1.943-4.826 2.558l-1.248.682c-.28.152-.43.225-.434.216"/>
            <path d="M214.967 143.103c-.005-.01.13-.089.397-.236.267-.145.666-.36 1.19-.64 1.054-.554 2.607-1.368 4.608-2.417 4.03-2.041 9.986-4.749 17.537-7.644 7.606-2.727 16.83-5.568 27.323-7.638 10.483-2.083 22.226-3.38 34.57-3.375 12.347-.006 24.088 1.292 34.571 3.375 10.497 2.07 19.718 4.911 27.325 7.638 7.55 2.895 13.508 5.603 17.536 7.644l4.609 2.417 1.19.64c.266.147.4.225.395.236 0 0-.574-.252-1.64-.779-1.062-.53-2.628-1.314-4.647-2.32-4.054-1.982-10.029-4.63-17.577-7.47-7.608-2.676-16.815-5.47-27.287-7.508a179.946 179.946 0 0 0-34.474-3.32 179.946 179.946 0 0 0-34.475 3.32c-10.468 2.037-19.678 4.832-27.287 7.508-7.548 2.84-13.52 5.488-17.575 7.47-2.019 1.006-3.586 1.79-4.649 2.32-1.066.527-1.64.779-1.64.779"/>
            <path d="M219.053 141.01c-.004-.008.124-.083.377-.223.256-.138.634-.34 1.13-.609a60.141 60.141 0 0 1 4.423-2.18c3.874-1.83 9.548-4.361 16.796-6.866 14.41-5.127 35.35-9.97 58.813-9.965 23.466-.006 44.406 4.838 58.815 9.965a165.137 165.137 0 0 1 16.796 6.865 59.835 59.835 0 0 1 4.422 2.181c.497.269.877.471 1.13.61.254.139.382.214.379.221-.005.01-.141-.05-.402-.175l-1.153-.561a71.018 71.018 0 0 0-4.464-2.091c-3.894-1.77-9.582-4.247-16.828-6.7-14.412-5.029-35.298-9.797-58.695-9.791-23.397-.006-44.279 4.762-58.692 9.79-7.247 2.454-12.934 4.93-16.83 6.7a71.018 71.018 0 0 0-4.463 2.092c-.507.247-.893.435-1.153.56-.26.125-.396.185-.4.176"/>
            <path d="M223.15 138.938c-.005-.007.12-.073.364-.192l1.096-.523 4.234-1.962c1.82-.897 4.15-1.752 6.817-2.837 2.653-1.13 5.768-2.154 9.2-3.324 13.706-4.654 33.559-8.854 55.732-8.917 22.173.063 42.026 4.263 55.732 8.917 3.432 1.17 6.547 2.195 9.2 3.324 2.666 1.085 4.998 1.94 6.817 2.837l4.234 1.962 1.096.523c.246.119.369.185.364.192-.003.008-.133-.042-.387-.147l-1.115-.477c-.976-.43-2.414-1.063-4.268-1.876-1.83-.87-4.168-1.697-6.842-2.756-2.657-1.104-5.775-2.103-9.207-3.249-13.708-4.56-33.512-8.692-55.624-8.757-22.113.065-41.916 4.197-55.624 8.757-3.432 1.146-6.55 2.145-9.209 3.25-2.67 1.058-5.011 1.885-6.838 2.755-1.856.813-3.294 1.446-4.27 1.876l-1.115.477c-.252.105-.384.155-.387.147"/>
            <path d="M227.332 137.048c-.003-.006.114-.07.346-.182.234-.11.58-.276 1.034-.492a52.715 52.715 0 0 1 4.032-1.75c1.776-.704 3.937-1.602 6.472-2.568 2.572-.864 5.478-1.922 8.737-2.946l5.157-1.48 2.746-.776 2.885-.672c1.96-.446 3.977-.948 6.073-1.388l6.5-1.171c8.92-1.434 18.841-2.384 29.28-2.426 10.437.042 20.356.992 29.28 2.426l6.498 1.171c2.095.44 4.114.942 6.073 1.388l2.885.672 2.746.777c1.793.513 3.515 1.008 5.155 1.479 3.26 1.024 6.168 2.082 8.74 2.946 2.535.966 4.695 1.864 6.47 2.568a53.161 53.161 0 0 1 4.035 1.75l1.031.492c.231.113.35.176.347.182-.003.007-.128-.04-.366-.138l-1.051-.45a63.428 63.428 0 0 0-4.066-1.668c-1.783-.678-3.95-1.55-6.49-2.492-2.577-.838-5.486-1.873-8.746-2.877l-5.155-1.446c-.895-.249-1.812-.502-2.743-.762-.944-.214-1.903-.435-2.882-.657-1.958-.436-3.971-.931-6.064-1.363l-6.488-1.148c-8.904-1.408-18.799-2.341-29.21-2.385-10.412.044-20.306.977-29.21 2.385l-6.488 1.148c-2.091.432-4.107.927-6.065 1.363l-2.88.657-2.745.762-5.154 1.446c-3.26 1.004-6.169 2.039-8.745 2.877-2.541.942-4.708 1.814-6.493 2.492a64.555 64.555 0 0 0-4.065 1.668l-1.05.45c-.238.099-.361.145-.366.138"/>
            <path d="M231.534 135.2s.45-.21 1.323-.57l3.83-1.552c1.648-.71 3.727-1.414 6.14-2.235l3.864-1.324c1.375-.446 2.852-.834 4.39-1.287 1.546-.438 3.162-.899 4.848-1.376l5.32-1.24c.918-.213 1.852-.43 2.802-.653.953-.204 1.934-.357 2.921-.543 1.98-.355 4.016-.721 6.105-1.098 8.402-1.22 17.714-2.052 27.516-2.112 9.803.06 19.114.893 27.516 2.112 2.09.377 4.126.743 6.104 1.098.988.186 1.968.34 2.922.543l2.803.653 5.318 1.24c1.686.477 3.303.938 4.846 1.376 1.54.453 3.02.841 4.393 1.287 1.368.47 2.657.91 3.863 1.324 2.414.82 4.493 1.526 6.141 2.235 1.664.674 2.955 1.197 3.83 1.553.874.358 1.323.568 1.323.568s-.472-.154-1.356-.487l-3.857-1.475c-1.657-.684-3.742-1.365-6.16-2.163l-3.866-1.288c-1.376-.435-2.856-.813-4.395-1.257l-4.846-1.346c-1.702-.39-3.476-.793-5.313-1.213l-2.8-.64c-.953-.2-1.93-.349-2.916-.532l-6.095-1.077c-8.386-1.195-17.675-2.013-27.455-2.073-9.78.06-19.069.878-27.455 2.073-2.085.37-4.118.728-6.095 1.077-.985.183-1.964.332-2.915.533l-2.8.639-5.315 1.213-4.846 1.346c-1.537.444-3.019.822-4.394 1.257l-3.867 1.288c-2.417.798-4.502 1.48-6.16 2.163l-3.856 1.475c-.885.333-1.356.487-1.356.487"/>
            <path d="M235.805 133.516s.422-.195 1.238-.531c.815-.344 2.021-.84 3.614-1.364l5.783-1.99c2.266-.734 4.892-1.433 7.772-2.276 2.885-.83 6.113-1.471 9.541-2.305 1.725-.375 3.531-.656 5.378-1.002 1.855-.308 3.746-.74 5.721-.945 7.856-1.169 16.58-1.764 25.74-1.878 9.163.114 17.885.71 25.742 1.878 1.975.205 3.866.637 5.72.945 1.848.346 3.654.627 5.378 1.002 3.429.834 6.66 1.474 9.543 2.305 2.88.843 5.505 1.542 7.772 2.276l5.781 1.99c1.596.524 2.8 1.02 3.614 1.364.818.336 1.24.53 1.24.53 0 .001-.441-.143-1.269-.454-.822-.318-2.037-.789-3.637-1.29l-5.798-1.923c-2.271-.71-4.897-1.389-7.778-2.214-2.884-.811-6.11-1.434-9.537-2.251-1.722-.368-3.525-.64-5.372-.981-1.85-.3-3.74-.726-5.71-.926-7.843-1.144-16.547-1.729-25.688-1.842-9.142.113-17.844.698-25.687 1.842-1.972.2-3.86.626-5.712.926-1.845.34-3.648.613-5.371.981-3.425.817-6.654 1.44-9.536 2.251-2.88.825-5.507 1.503-7.778 2.214l-5.798 1.923c-1.602.501-2.814.972-3.638 1.29-.827.311-1.268.455-1.268.455"/>
            <path d="M240.099 131.894s.4-.162 1.174-.438c.777-.27 1.921-.67 3.396-1.185l2.457-.847c.911-.266 1.904-.554 2.968-.861 1.066-.308 2.207-.636 3.415-.986 1.207-.354 2.485-.724 3.851-1.017 10.817-2.758 26.162-5.244 43.233-5.322 17.07.078 32.418 2.564 43.233 5.322 1.366.293 2.642.663 3.85 1.017l3.416.986c1.064.307 2.057.595 2.968.861.9.309 1.72.592 2.457.847l3.396 1.185c.773.276 1.174.438 1.174.438s-.419-.114-1.2-.366l-3.415-1.116c-.741-.244-1.564-.517-2.466-.816l-2.974-.83-3.418-.955c-1.207-.345-2.486-.705-3.853-.99-10.816-2.686-26.132-5.124-43.168-5.202-17.035.078-32.35 2.516-43.167 5.202-1.366.285-2.645.645-3.852.99l-3.42.956c-1.067.297-2.061.574-2.974.83l-2.466.815-3.414 1.116c-.784.252-1.201.366-1.201.366"/>
            <path d="M244.449 130.424s.37-.151 1.088-.406c.716-.257 1.77-.639 3.166-1.022 2.78-.784 6.768-2.071 11.825-3.156 10.057-2.355 24.265-4.539 40.064-4.587 15.8.048 30.009 2.232 40.066 4.587 5.057 1.085 9.045 2.372 11.826 3.156 1.395.383 2.45.765 3.165 1.022.718.255 1.088.406 1.088.406s-.385-.105-1.108-.337c-.725-.236-1.786-.597-3.184-.959-2.792-.745-6.785-1.993-11.843-3.045-10.057-2.289-24.24-4.429-40.01-4.477-15.767.048-29.951 2.188-40.008 4.477-5.058 1.052-9.051 2.3-11.842 3.045-1.399.362-2.46.723-3.184.959-.724.232-1.11.337-1.11.337"/>
            <path d="M248.822 129.034s.347-.123 1.018-.322l2.936-.866c2.531-.82 6.293-1.632 10.92-2.725 9.299-1.953 22.369-3.834 36.896-3.854 14.53.02 27.6 1.9 36.898 3.854 4.627 1.093 8.388 1.905 10.922 2.725l2.935.866c.67.2 1.017.322 1.017.322s-.361-.08-1.035-.26c-.676-.184-1.67-.457-2.952-.805-2.542-.783-6.308-1.56-10.935-2.625-9.297-1.891-22.346-3.732-36.85-3.753-14.502.021-27.55 1.862-36.85 3.753-4.626 1.065-8.391 1.842-10.934 2.625-1.28.348-2.275.621-2.95.806-.676.18-1.036.26-1.036.26"/>
            <path d="M253.24 127.78s.316-.11.928-.294c.613-.18 1.51-.47 2.695-.732l4.3-1.017c1.677-.402 3.585-.864 5.727-1.212 8.497-1.726 20.45-3.241 33.703-3.244 13.253.003 25.206 1.518 33.703 3.244 2.142.348 4.05.81 5.727 1.212l4.301 1.017c1.185.261 2.083.552 2.695.732.611.183.928.294.928.294s-.327-.072-.944-.237c-.617-.16-1.52-.435-2.707-.676l-4.31-.97c-1.677-.385-3.585-.832-5.728-1.166-8.498-1.673-20.434-3.15-33.665-3.153-13.232.003-25.167 1.48-33.665 3.153-2.143.334-4.05.781-5.728 1.167-1.68.378-3.127.702-4.308.969-1.19.241-2.092.516-2.709.676-.615.165-.944.237-.944.237"/>
            <path d="M257.681 126.625s.29-.086.85-.224l2.456-.592c1.069-.243 2.367-.588 3.894-.896l5.208-.948c7.72-1.342 18.52-2.686 30.504-2.67 11.984-.016 22.784 1.328 30.504 2.67 1.929.351 3.675.67 5.208.948 1.526.308 2.825.653 3.894.896l2.456.592c.56.138.851.224.851.224s-.3-.051-.865-.171l-2.465-.543c-1.073-.228-2.373-.557-3.9-.85-1.534-.27-3.28-.574-5.21-.91-7.722-1.293-18.505-2.604-30.473-2.587-11.968-.017-22.752 1.294-30.472 2.587-1.93.336-3.677.64-5.211.91-1.527.293-2.827.622-3.899.85-1.072.235-1.904.418-2.467.543-.564.12-.863.17-.863.17"/>
            <path d="M262.154 125.593s1.042-.312 2.965-.693c1.93-.354 4.72-.864 8.17-1.494 6.94-.98 16.59-2.076 27.303-2.095 10.716.02 20.365 1.114 27.305 2.095 3.45.63 6.24 1.14 8.17 1.494 1.923.381 2.965.693 2.965.693s-.27-.045-.774-.154c-.506-.095-1.24-.303-2.21-.447l-8.177-1.42c-6.941-.937-16.578-2.003-27.279-2.023-10.7.02-20.336 1.086-27.278 2.024l-8.177 1.419c-.97.144-1.702.352-2.21.447-.504.11-.773.154-.773.154"/>
            <path d="M266.652 124.673s.934-.195 2.633-.511c1.701-.317 4.154-.81 7.227-1.155l5.014-.65c1.805-.213 3.746-.31 5.783-.484 4.07-.416 8.57-.4 13.283-.55 4.716.15 9.215.134 13.285.55 2.035.174 3.977.271 5.783.484l5.014.65c3.073.345 5.527.838 7.227 1.155 1.7.316 2.634.511 2.634.511s-.947-.139-2.65-.432c-1.703-.289-4.158-.76-7.23-1.087l-5.013-.623c-1.805-.204-3.745-.297-5.78-.465-4.066-.405-8.56-.382-13.27-.53-4.708.148-9.202.125-13.268.53-2.035.168-3.975.261-5.78.465l-5.012.623c-3.073.327-5.53.798-7.232 1.087-1.702.293-2.648.432-2.648.432"/>
            <path d="M271.17 123.867s.81-.18 2.284-.432l6.281-.826c5.307-.689 12.693-1.161 20.858-1.271 8.166.11 15.55.582 20.857 1.27l6.283.827c1.473.252 2.282.432 2.282.432s-.206-.024-.595-.088l-1.699-.275c-1.483-.18-3.632-.444-6.286-.768-5.307-.654-12.685-1.105-20.842-1.215-8.157.11-15.536.561-20.843 1.215-2.654.324-4.8.588-6.286.768l-1.699.275c-.387.064-.594.088-.594.088"/>
            <path d="M275.71 123.184s2.763-.43 7.252-.938c2.253-.177 4.935-.385 7.914-.618 2.985-.127 6.27-.178 9.717-.276 3.446.098 6.733.149 9.717.276 2.979.233 5.66.441 7.913.618 4.49.509 7.253.938 7.253.938s-.695-.068-1.949-.218c-1.256-.133-3.065-.408-5.314-.612l-7.91-.583c-2.983-.12-6.267-.167-9.71-.264-3.444.097-6.726.144-9.71.264l-7.91.583c-2.248.204-4.057.479-5.312.612-1.255.15-1.952.218-1.952.218"/>
            <path d="M280.264 122.606s.565-.09 1.587-.227c1.023-.123 2.512-.216 4.35-.369 1.84-.117 4.024-.382 6.462-.438l7.93-.205 7.93.205c2.437.056 4.622.321 6.462.438 1.838.153 3.327.246 4.35.37 1.023.136 1.586.226 1.586.226s-.567-.056-1.591-.177c-1.024-.11-2.515-.19-4.352-.33-1.84-.105-4.024-.363-6.46-.411l-7.925-.195-7.925.195c-2.437.048-4.62.306-6.46.41-1.838.142-3.328.221-4.352.33-1.024.122-1.592.178-1.592.178"/>
            <path d="M284.833 122.158s1.76-.159 4.607-.384c1.423-.145 3.121-.195 5.01-.234l6.143-.16 6.143.16c1.889.04 3.588.089 5.011.234 2.846.225 4.606.384 4.606.384s-1.764-.108-4.61-.315c-1.422-.136-3.123-.18-5.01-.214-1.887-.045-3.963-.096-6.14-.152-2.177.056-4.253.107-6.14.152-1.887.034-3.587.078-5.01.214-2.846.207-4.61.315-4.61.315"/>
            <path d="M289.411 121.81l.876-.08a27.478 27.478 0 0 1 2.395-.125l7.91-.21 7.914.21c1.013.013 1.83.067 2.393.126.564.05.875.08.875.08l-.875-.055a30.062 30.062 0 0 0-2.396-.102c-2.026-.05-4.82-.117-7.91-.19-3.089.073-5.885.14-7.909.19a29.983 29.983 0 0 0-2.394.102l-.879.054"/>
            <path d="M293.996 121.596l6.598-.188 6.596.188-6.596-.147-6.598.147"/>
            <path d="M298.586 121.48l2.007-.057 2.007.057-2.007-.045c-1.108.026-2.007.045-2.007.045"/>
        </g>
        <path stroke="#FFF" stroke-width="4.5" d="M300.591 339.256c-21.227 0-38.438-17.196-38.438-38.406 0-21.211 17.21-38.407 38.438-38.407 21.23 0 38.44 17.196 38.44 38.407 0 21.21-17.21 38.406-38.44 38.406z"/>
        <path stroke="#FFF" stroke-width="4.5" d="M515.657 300.852c0-118.678-96.287-214.885-215.064-214.885-118.777 0-215.066 96.207-215.066 214.885 0 118.679 96.289 214.887 215.066 214.887s215.064-96.208 215.064-214.887z"/>
        <path fill="#EC926A" d="M206.573 377.574l17.625 17.83 8.923-8.916-17.962-17.295zM288.408 421.535l25.082.151v-11.311h-25.082zM377.38 394.79l17.846-17.61-7.994-7.986-17.734 17.72zM421.528 287.962v25.06H411.28v-24.937zM179.828 313.738h10.141V288.67h-10.14zM287.7 190.309h25.076v-10.297H287.7zM223.81 206.916l-17.844 17.596 7.218 7.212 18.35-17.094zM376.986 206.295l17.625 17.83-8.392 8.386-17.734-17.721z"/>
    </g>
</svg>
