<svg xmlns="http://www.w3.org/2000/svg" width="123" height="127" viewBox="0 0 123 127">
    <g fill="none" fill-rule="evenodd">
        <path fill="#FFF" fill-opacity="0" d="M-6 131h135V-4H-6z"/>
        <path stroke="#EC5621" stroke-linecap="round" stroke-linejoin="round" stroke-width="3.2" d="M61.74 94.177v18M11.904 124.946h99.67v-13.068h-99.67zM63.999 80.793h-3.51a2.854 2.854 0 0 1-2.848-2.853v-2.168a21.078 21.078 0 0 1-7.173-2.606l-1.576 1.576a2.845 2.845 0 0 1-4.023 0l-2.483-2.482a2.831 2.831 0 0 1-.833-2.019c0-.761.294-1.48.833-2.017l1.31-1.31a21.04 21.04 0 0 1-3.215-7.129h-2.015a2.852 2.852 0 0 1-2.846-2.853v-3.508a2.853 2.853 0 0 1 2.846-2.853h1.816a21.039 21.039 0 0 1 2.883-7.242l-1.492-1.493a2.837 2.837 0 0 1-.837-2.019c0-.761.297-1.48.837-2.017l2.483-2.484a2.849 2.849 0 0 1 4.02 0l1.466 1.468a21.091 21.091 0 0 1 6.989-2.919v-2.46a2.85 2.85 0 0 1 2.846-2.852h3.51a2.85 2.85 0 0 1 2.847 2.851v2.461a21.1 21.1 0 0 1 6.735 2.752l2.016-2.016a2.85 2.85 0 0 1 4.022 0l2.483 2.483c.54.538.835 1.256.835 2.02 0 .761-.296 1.48-.835 2.017l-1.955 1.955a21.15 21.15 0 0 1 2.824 6.484h3.053a2.852 2.852 0 0 1 2.846 2.85v3.511a2.853 2.853 0 0 1-2.846 2.853h-2.807a21.091 21.091 0 0 1-2.488 6.646l2.09 2.088c.54.54.834 1.255.834 2.018 0 .763-.295 1.482-.834 2.02l-2.483 2.482a2.85 2.85 0 0 1-4.024 0l-1.811-1.812a21.164 21.164 0 0 1-6.642 3.113v2.611a2.854 2.854 0 0 1-2.848 2.853z"/>
        <path stroke="#EC5621" stroke-linecap="round" stroke-linejoin="round" stroke-width="3.2" d="M61.493 69.91c-8.402 0-15.237-6.836-15.237-15.236 0-8.401 6.835-15.237 15.237-15.237 8.401 0 15.235 6.836 15.235 15.237 0 8.4-6.834 15.235-15.235 15.235z"/>
        <path stroke="#EC5621" stroke-linecap="round" stroke-linejoin="round" stroke-width="3.2" d="M2.09 94.178h119.3V2.235H2.09zM9.212 13.163h79.606M94.805 13.163h6.693M107.574 13.163h6.693"/>
    </g>
</svg>
