<?xml version="1.0" encoding="UTF-8"?>
<svg width="340px" height="340px" viewBox="0 0 340 340" version="1.1" xmlns="http://www.w3.org/2000/svg" xmlns:xlink="http://www.w3.org/1999/xlink">
    <!-- Generator: sketchtool 55.1 (78136) - https://sketchapp.com -->
    <title>C184117C-6A87-4BBA-A132-3FE2C558559D</title>
    <desc>Created with sketchtool.</desc>
    <defs>
        <rect id="path-1" x="0" y="0" width="340" height="340" rx="8"></rect>
        <polygon id="path-3" points="0 0.000365929002 552.4536 0.000365929002 552.4536 118.5307 0 118.5307"></polygon>
        <polygon id="path-5" points="0.760390849 0.118076703 111.342568 0.118076703 111.342568 116 0.760390849 116"></polygon>
        <polygon id="path-7" points="0 0.806958397 14.6193134 0.806958397 14.6193134 12.4214297 0 12.4214297"></polygon>
    </defs>
    <g id="Page-1" stroke="none" stroke-width="1" fill="none" fill-rule="evenodd">
        <g id="Pisces-ER1-Home-page--Thank-you-pop-up" transform="translate(-551.000000, -318.000000)">
            <g id="Thank-you-graphic" transform="translate(551.000000, 318.000000)">
                <g id="Group-3">
                    <mask id="mask-2" fill="white">
                        <use xlink:href="#path-1"></use>
                    </mask>
                    <use id="Mask" fill="#FFFFFF" xlink:href="#path-1"></use>
                    <g opacity="0.501697359" mask="url(#mask-2)">
                        <g transform="translate(-179.000000, 227.000000)">
                            <mask id="mask-4" fill="white">
                                <use xlink:href="#path-3"></use>
                            </mask>
                            <g id="Clip-2" stroke="none" fill="none"></g>
                            <path d="M569.421775,12.2853341 C558.369775,11.0303341 547.295775,13.9103341 536.327775,21.0233341 C518.577775,32.5353341 501.235775,32.9853341 483.601775,21.0223341 C475.391775,15.4523341 466.338775,12.2993341 456.437775,12.1393341 C455.882775,12.1313341 455.351775,12.1593341 454.852775,12.2313341 C454.461775,12.2163341 454.063775,12.2133341 453.660775,12.2253341 C443.912775,12.5463341 435.161775,15.9873341 426.836775,21.1163341 C422.618775,23.7153341 418.208775,26.1973341 413.590775,27.8213341 C399.698775,32.7063341 386.942775,29.2893341 374.840775,21.3813341 C356.011775,9.07733407 336.834775,8.79233407 317.975775,21.0233341 C300.226775,32.5353341 282.884775,32.9853341 265.250775,21.0223341 C257.039775,15.4523341 247.986775,12.2993341 238.086775,12.1393341 C237.377775,12.1283341 236.705775,12.1773341 236.095775,12.3083341 C226.801775,12.8473341 218.398775,16.1863341 210.397775,21.1163341 C206.179775,23.7153341 201.769775,26.1973341 197.150775,27.8213341 C183.259775,32.7063341 170.504775,29.2893341 158.401775,21.3813341 C139.572775,9.07733407 120.395775,8.79233407 101.536775,21.0233341 C83.7877751,32.5353341 66.4457751,32.9853341 48.8117751,21.0223341 C40.6017751,15.4523341 31.5477751,12.2993341 21.6477751,12.1393341 C19.1677751,12.0993341 17.0507751,12.6583341 17,15.7373341 C16.9547751,18.5873341 18.9627751,19.3763341 21.2647751,19.4223341 C30.7087751,19.6093341 38.9357751,23.3403341 46.8587751,28.4033341 C65.6777751,40.4313341 84.7237751,40.5123341 103.400775,28.2413341 C109.855775,24.0003341 116.260775,21.3123341 122.644775,20.1553341 L122.644775,44.1163341 L122.675775,44.1163341 L122.675775,130.530334 L569.453775,130.530334 L569.453775,40.8313341 L569.453775,37.4333341 L569.453775,12.2853341" id="Fill-1" stroke="none" fill="#8AD3F5" fill-rule="evenodd" opacity="0.945661272" mask="url(#mask-4)"></path>
                        </g>
                    </g>
                </g>
                <g id="Group-7" transform="translate(97.496153, 122.114286)">
                    <g id="Group-3" transform="translate(1.503847, 6.885714)">
                        <mask id="mask-6" fill="white">
                            <use xlink:href="#path-5"></use>
                        </mask>
                        <g id="Clip-2"></g>
                        <path d="M41.3021474,73.3522638 C42.7834105,76.5969014 42.7253053,76.4355101 45.9135158,74.6509594 C49.2086737,72.8075681 52.4541474,70.8624667 55.6187789,68.8030464 C58.9981474,66.6032493 59.0394105,66.4208435 56.3834105,63.4720899 C52.4499368,68.3255971 47.3223579,71.4113652 41.3021474,73.3522638 M48.9737263,45.8308435 C48.7438316,45.6055681 48.4187789,45.4971333 48.0987789,45.5408435 C38.6512,46.821887 31.3787789,50.7700899 26.2032,58.221829 C25.7434105,58.8833652 25.7459368,60.5620029 26.2419368,61.0486986 C27.4015158,62.1860029 28.3354105,61.0848435 29.0680421,60.077829 C33.7947789,53.5734232 40.2520421,50.1060319 48.1644632,49.0452203 C48.3312,49.0233652 48.4920421,48.9636841 48.6495158,48.8779449 C49.7585684,48.2744087 49.8781474,46.7126116 48.9737263,45.8308435 M54.4078316,59.9340899 C54.5013053,59.735713 54.5425684,59.5541478 54.4802526,59.4204957 C54.2419368,58.9069014 52.1745684,59.2666696 51.6970947,59.3751043 C42.4103579,61.4782348 34.5476211,66.0148435 28.2865684,73.211887 C27.5733053,74.0322928 26.9880421,75.0132493 26.5459368,76.0084957 C25.6373053,78.0502638 26.3000421,79.2253942 28.5383579,79.4380609 C32.2250947,79.787742 35.6819368,78.7975391 39.3375158,77.4702638 C38.4600421,75.8966986 37.6634105,74.561858 36.9577263,73.1807855 C36.0154105,71.335713 36.5459368,70.1975681 38.5232,70.0286116 C43.9472,69.5662928 48.1366737,66.7100029 51.9522526,63.1804087 C52.5754105,62.6046116 53.0545684,61.8993652 53.5210947,61.1966406 C53.6844632,60.9511913 54.1905684,60.3972493 54.4078316,59.9340899 M44.1206737,109.218119 C40.7766737,111.132959 37.7383579,112.948612 34.6057263,114.58438 C34.1568842,114.818061 32.8895158,114.387684 32.6099368,113.910235 C26.9055158,104.174641 21.0293053,94.5239449 15.7493053,84.5613942 C12.3530947,78.1511333 12.6570947,71.2802348 15.9615158,64.7304377 C17.3813053,61.9170174 19.0309895,59.2179159 20.6166737,56.4893942 C23.1084632,52.2024377 23.4646737,47.9247275 20.8684632,43.5142058 C17.1446737,37.1896841 13.5514105,30.7886696 9.79477895,24.4851623 C8.89035789,22.9687565 9.00572632,22.1811333 10.5956211,21.3540029 C11.8183579,20.7176841 13.8874105,20.0973362 12.7690947,18.1547565 C11.5522526,16.0423797 10.0112,17.7479159 8.73877895,18.4371913 C5.70551579,20.0805246 5.55730526,20.0788435 3.80235789,17.0670464 C2.92825263,15.5674522 2.0912,14.0460029 1.21372632,12.5480899 C0.245305263,10.8955101 0.793515789,9.6918 3.19604211,8.8671913 C8.01541053,7.21377101 12.4213053,4.60461159 16.3472,1.36081449 C18.5501474,-0.45904058 19.9901474,-0.356489855 20.9981474,2.17617681 C21.5505684,3.56565507 22.2587789,4.89461159 23.2061474,6.05124928 C24.9080421,8.12832174 24.5863579,9.42029275 22.7556211,10.3583797 C21.9135158,10.7887565 20.9619368,11.1804667 20.3657263,11.8579739 C20.3067789,11.9252203 20.2545684,11.9983507 20.2090947,12.0773652 C19.5952,13.1339739 20.3556211,14.5226116 21.5699368,14.6747565 C21.7644632,14.6991333 21.9514105,14.695771 22.1265684,14.6503797 C22.9838316,14.4276261 23.7619368,13.9056261 24.6276211,13.3726986 C25.0469895,13.1154812 25.6002526,13.2331623 25.8823579,13.6366406 C26.1594105,14.0308725 26.4095158,14.3898 26.6301474,14.7689014 C30.2436211,20.9740609 33.9455158,27.1321478 37.4183579,33.4154812 C40.1509895,38.3580899 44.3387789,40.2611623 49.7602526,40.1560899 C52.6815158,40.0989304 55.6128842,40.0249594 58.5248842,40.1989594 C66.8187789,40.6965826 73.0352,44.6590754 77.1876211,51.809887 C87.3720421,69.3494232 97.5269895,86.9074522 107.690358,104.459597 C108.833937,106.432438 109.961516,108.414525 111.342568,110.821104 C107.986779,112.618264 104.793516,114.435597 101.471411,115.97638 C101.045305,116.173075 99.6617263,115.105539 99.2103579,114.337249 C93.4899368,104.610061 87.8570947,94.8315971 82.2048842,85.0640609 C78.0937263,77.9603217 73.9901474,70.8523797 69.8739368,63.7520029 C69.4832,63.0786986 69.0309895,62.4415391 68.5442526,61.6900609 C57.9733053,73.4035391 45.2920421,81.0830754 29.2314105,83.4215681 C34.2015158,92.0324667 39.1067789,100.530728 44.1206737,109.218119" id="Fill-1" fill="#EC926A" mask="url(#mask-6)"></path>
                    </g>
                    <g id="Group-6" transform="translate(0.503847, 0.885714)">
                        <mask id="mask-8" fill="white">
                            <use xlink:href="#path-7"></use>
                        </mask>
                        <g id="Clip-5"></g>
                        <path d="M13.91225,6.70889375 L4.09225,12.2371437 C3.41641667,12.6165812 2.55141667,12.3915187 2.16058333,11.7325812 L0.18975,8.40295625 C-0.201083333,7.74320625 0.0305833333,6.89983125 0.70725,6.51958125 L10.52725,0.99214375 C11.2030833,0.61108125 12.0680833,0.83695625 12.4580833,1.49670625 L14.42975,4.82633125 C14.81975,5.48526875 14.5889167,6.32783125 13.91225,6.70889375" id="Fill-4" fill="#231F20" mask="url(#mask-8)"></path>
                    </g>
                </g>
            </g>
        </g>
    </g>
</svg>