<svg xmlns="http://www.w3.org/2000/svg" width="140" height="124" viewBox="0 0 140 124">
    <g fill="none" fill-rule="evenodd">
        <path fill="#FFF" fill-opacity="0" d="M2 129h135V-6H2z"/>
        <path stroke="#EC5621" stroke-linecap="round" stroke-linejoin="round" stroke-width="3.2" d="M114.63 52.492h17.085a5.765 5.765 0 0 0 5.761-5.762V7.792a5.765 5.765 0 0 0-5.761-5.76H62.384a5.765 5.765 0 0 0-5.762 5.76v38.74c0 3.179 2.582 5.76 5.762 5.76l52.246.2"/>
        <path fill="#010101" d="M98.738 52.492h11.323M83.838 52.492h10.926"/>
        <path stroke="#EC5621" stroke-linecap="round" stroke-linejoin="round" stroke-width="3.2" d="M47.89 89.463c1.192 0 1.987-.796 1.987-1.988V50.923c0-8.145-5.96-14.899-13.112-14.899H15.112C7.96 36.024 2 42.58 2 50.924v36.75c0 1.192.794 1.987 1.987 1.987h7.349v25.627c0 3.376 2.782 6.159 6.16 6.159h16.886c3.376 0 6.157-2.783 6.157-6.159V89.463h7.35zM25.84 31.434c8.144 0 14.7-6.557 14.7-14.701 0-8.146-6.556-14.7-14.7-14.7-8.146 0-14.701 6.554-14.701 14.7.198 8.144 6.753 14.7 14.7 14.7zM11.336 89.661V55.06M40.54 89.661V55.06M25.938 121.248V86.646M74.502 90.878a11.267 11.267 0 0 0 11.293-11.293 11.267 11.267 0 0 0-11.293-11.29 11.267 11.267 0 0 0-11.293 11.29c.154 6.258 5.19 11.293 11.293 11.293zM92.382 121.248h-35.76V106.02c0-5.303 4.299-9.602 9.601-9.602h16.559c5.3 0 9.6 4.298 9.6 9.6v15.229zM119.597 90.878a11.267 11.267 0 0 0 11.293-11.293 11.267 11.267 0 0 0-11.293-11.29 11.266 11.266 0 0 0-11.293 11.29c.152 6.258 5.19 11.293 11.293 11.293zM137.477 121.248h-35.76v-15.229a9.6 9.6 0 0 1 9.6-9.6h16.566c5.298 0 9.594 4.296 9.594 9.594v15.235zM124.757 43.687H74.053l-7.44-12.253h60.747z"/>
        <path stroke="#EC5621" stroke-linecap="round" stroke-linejoin="round" stroke-width="3.2" d="M72.935 31.434h6.137V12.632h-6.137zM97.048 31.434h9.36v-9.36h-9.36z"/>
        <path stroke="#EC5621" stroke-linecap="round" stroke-linejoin="round" stroke-width="3.2" d="M106.407 31.434h9.36v-9.36h-9.36zM115.767 31.434h9.358v-9.36h-9.358zM111.087 22.034h9.36v-9.36h-9.36z"/>
        <path stroke="#EC5621" stroke-linecap="round" stroke-linejoin="round" stroke-width="3.2" d="M101.728 22.034h9.36v-9.36h-9.36z"/>
    </g>
</svg>
