<svg xmlns="http://www.w3.org/2000/svg" xmlns:xlink="http://www.w3.org/1999/xlink" width="1440" height="1397" viewBox="0 0 1440 1397">
    <defs>
        <path id="a" d="M.156.005h1440V1396.67H.156z"/>
        <linearGradient id="b" x1="50%" x2="50%" y1="0%" y2="51.653%">
            <stop offset="0%" stop-color="#FFF"/>
            <stop offset="100%" stop-color="#AEC7DB"/>
        </linearGradient>
    </defs>
    <g fill="none" fill-rule="evenodd" opacity=".339">
        <mask id="c" fill="#fff">
            <use xlink:href="#a"/>
        </mask>
        <path fill="url(#b)" d="M-15.195 1145.047c32.587-12.193 69.029 2.311 98.365 21.018s56.837 42.282 90.604 50.668c62.375 15.49 130.004-24.713 190.91-4.2 84.28 28.385 104.855 153.858 189.94 179.722 56.268 17.104 114.729-18.283 157.964-58.149s83.699-87.759 140.235-103.954c53.424-15.302 113.666.51 164.252-22.499 38.842-17.667 65.177-55.403 102.682-75.758 36.783-19.963 80.643-21.324 122.439-19.166 41.796 2.158 84.179 7.317 125.145-1.25 40.965-8.567 74.422-33.113 86.816-73.092V6.005v-6H-16l.805 1145.042z" mask="url(#c)"/>
    </g>
</svg>
