<svg xmlns="http://www.w3.org/2000/svg" width="1440" height="1150" viewBox="0 0 1440 1150">
    <defs>
        <linearGradient id="a" x1="50%" x2="50%" y1="118.451%" y2="3.809%">
            <stop offset=".62%" stop-color="#FFF"/>
            <stop offset="100%" stop-color="#AEC7DB"/>
        </linearGradient>
        <path id="b" d="M553 1h1440v1154H553z"/>
    </defs>
    <g fill="none" fill-rule="evenodd">
        <path fill="url(#a)" d="M64.932 852.122c44.651-7.505 88.008 14.862 119.316 38.658 31.307 23.798 61.087 51.82 105.126 60.967 73.332 15.232 144.659-28.486 220.733-33.566 102.18-6.822 185.003 55.12 247.725 112.74 62.72 57.621 137.633 122.225 240.232 124.04 101.28 1.792 180.417-58.69 244.667-114.247 64.25-55.56 142.748-116.27 244.047-115.202 70.52.742 137.493 32.587 207.189 24.923 123.575-13.589 163.3-134.467 277.401-170.762 107.038-34.049 229.613 19.13 346.58 12.779 72.224-3.921 141.054-32.245 181.704-74.77 40.648-42.525 52.265-98.363 30.666-147.403-10.344-23.486.875-52.642.875-77.246V0c-100.708 3.215-197.965 4.905-298.774 4.905H0c0 5.557 3.358 13.494 3.358 19.05v838.153c18.067-12.396 37.915-16.01 61.574-9.986" transform="rotate(-180 996.5 577.5)"/>
    </g>
</svg>
